<svg width="141" height="141" viewBox="0 0 141 141" fill="none" xmlns="http://www.w3.org/2000/svg">
<g clip-path="url(#clip0_1_20)">
<mask id="mask0_1_20" style="mask-type:luminance" maskUnits="userSpaceOnUse" x="0" y="0" width="141" height="141">
<path d="M0.546875 0.796875H140.547V100.797C140.547 122.888 122.638 140.797 100.547 140.797H0.546875V0.796875Z" fill="white"/>
</mask>
<g mask="url(#mask0_1_20)">
<path fill-rule="evenodd" clip-rule="evenodd" d="M91.2714 53.3897C92.3705 53.3897 92.9529 52.0904 92.2216 51.27L68.9681 25.1807C68.462 24.6128 67.5739 24.6128 67.0678 25.1807L43.8143 51.27C43.083 52.0904 43.6654 53.3897 44.7645 53.3897H50.8348C51.5377 53.3897 52.1076 53.9596 52.1076 54.6625V139.942C52.1076 140.645 52.6775 141.215 53.3804 141.215H82.6555C83.3585 141.215 83.9283 140.645 83.9283 139.942V54.6625C83.9283 53.9596 84.4982 53.3897 85.2011 53.3897H91.2714Z" fill="#A1BAFF"/>
<path d="M80.2075 82.8249C78.2743 79.5813 74.129 78.4363 70.805 80.2279L57.4327 87.4356C55.2673 88.6027 54.385 91.2541 55.4193 93.4861L61.3372 106.256C63.0957 110.051 67.7518 111.489 71.3445 109.348L83.4919 102.109C86.837 100.115 87.9326 95.7869 85.9389 92.4417L80.2075 82.8249Z" fill="#081A3D"/>
<path d="M53.774 92.6697C52.06 87.8259 54.5972 82.5099 59.441 80.796L67.115 78.0805C71.9588 76.3666 77.2748 78.9038 78.9888 83.7475L53.774 92.6697Z" fill="#081A3D"/>
<path d="M75.0918 79.6207C81.354 78.8371 87.0657 83.2783 87.8494 89.5404L89.2607 100.818C90.0443 107.08 85.6031 112.792 79.341 113.575L75.0918 79.6207Z" fill="#081A3D"/>
<path d="M61.4163 95.29L54.2267 105.649C53.9703 106.019 54.1597 106.531 54.5947 106.644L61.5515 108.461L67.1867 118.976L67.9332 131.149L84.9399 130.949L82.9332 101.651L61.4163 95.29Z" fill="#F9B8A4"/>
<path d="M58.4576 137.298C60.427 134.364 63.0906 131.962 66.2117 130.304L78.3437 123.862C87.3141 119.099 98.2058 125.209 98.8176 135.347L99.427 145.443C99.5654 147.736 97.7539 149.677 95.4567 149.697L57.476 150.023C54.2504 150.05 52.3126 146.453 54.1103 143.775L58.4576 137.298Z" fill="#F67474"/>
<mask id="mask1_1_20" style="mask-type:alpha" maskUnits="userSpaceOnUse" x="67" y="111" width="17" height="25">
<path d="M80.6054 111.762L67.1869 118.977L68.0833 135.365L83.8939 117.28L80.6054 111.762Z" fill="#F9B8A4"/>
</mask>
<g mask="url(#mask1_1_20)">
<path d="M66.3005 123.647C66.2047 123.045 66.3255 120.645 65.1725 119.983L75.2421 118.756C75.6843 118.702 75.995 119.132 75.7157 119.479C73.495 122.239 66.3973 124.256 66.3005 123.647Z" fill="#DB8C74"/>
</g>
<path d="M68.0218 110.235C66.2074 110.972 64.1389 110.099 63.4018 108.285C62.6647 106.47 63.5381 104.402 65.3525 103.665C67.167 102.927 69.2354 103.801 69.9725 105.615C70.7096 107.43 69.8362 109.498 68.0218 110.235Z" fill="#F49D82"/>
<path d="M84.0203 106.216C81.8431 123.882 61.5093 119.172 57.0869 117.93C56.572 117.785 56.246 117.316 56.2622 116.781C56.3558 113.709 56.8307 103.311 59.0949 94.5756C61.7847 84.198 67.9954 84.1206 74.0181 85.6817C80.0409 87.2428 86.7102 95.8378 84.0203 106.216Z" fill="#F9B8A4"/>
<path d="M82.9949 108.972C80.7106 110.333 77.7552 109.585 76.3938 107.301C75.0324 105.017 75.7805 102.061 78.0648 100.7C80.3491 99.3384 83.3046 100.087 84.666 102.371C86.0274 104.655 85.2792 107.611 82.9949 108.972Z" fill="#081A3D"/>
<path d="M68.0396 108.004C66.5444 109.349 64.2421 109.227 62.8973 107.732C61.5524 106.237 61.6743 103.934 63.1695 102.59C64.6647 101.245 66.967 101.367 68.3119 102.862C69.6567 104.357 69.5348 106.659 68.0396 108.004Z" fill="#F49D82"/>
<path d="M68.0435 99.3419C69.1455 98.2253 67.393 95.5736 65.2197 94.066C64.4179 93.5098 63.3681 93.8312 62.8041 94.6276C62.6379 94.8624 62.747 95.1953 63.0044 95.3237C65.1236 96.3809 67.7435 99.6458 68.0435 99.3419Z" fill="#081A3D"/>
<path d="M62.4101 100.97C62.9984 101.197 63.7403 100.694 64.0672 99.8465C64.3942 98.9989 64.1822 98.1279 63.5939 97.901C63.0056 97.674 62.2636 98.1772 61.9367 99.0247C61.6098 99.8722 61.8217 100.743 62.4101 100.97Z" fill="#081A3D"/>
<path d="M88.653 105.512C86.1152 107.025 82.8317 106.193 81.3192 103.656C79.8066 101.118 80.6378 97.8342 83.1757 96.3217C85.7136 94.8092 88.9971 95.6403 90.5096 98.1782C92.0221 100.716 91.1909 104 88.653 105.512Z" fill="#081A3D"/>
<path d="M88.6529 98.5343C86.1151 100.047 81.3713 96.7654 78.0575 91.2052C74.7436 85.6449 74.1146 79.9112 76.6524 78.3987C79.1903 76.8862 83.934 80.1675 87.2479 85.7278C90.5617 91.2881 91.1908 97.0217 88.6529 98.5343Z" fill="#081A3D"/>
<path d="M77.4499 102.5L69.2748 88.7825C66.3473 91.3531 62.4246 92.4814 58.5788 91.859L56.0677 91.4526C55.8815 91.4225 55.7719 91.2268 55.8436 91.0523L56.8853 88.5169C57.4979 87.0259 58.6028 85.7899 60.016 85.0146L68.1588 80.5475C71.5738 78.6741 75.8609 79.9245 77.7332 83.34L83.785 94.3799C85.2809 97.1088 84.811 100.496 82.6287 102.714L82.2688 103.08C80.8602 104.512 78.4782 104.225 77.4499 102.5Z" fill="#081A3D"/>
<mask id="mask2_1_20" style="mask-type:alpha" maskUnits="userSpaceOnUse" x="55" y="79" width="30" height="25">
<path d="M77.45 102.5L69.2749 88.7826C66.3474 91.3532 62.4247 92.4815 58.5788 91.8591L56.0678 91.4527C55.8816 91.4226 55.772 91.2269 55.8437 91.0524L56.8854 88.517C57.498 87.026 58.6029 85.79 60.0161 85.0147L68.1589 80.5476C71.5739 78.6742 75.861 79.9246 77.7333 83.3401L83.7851 94.38C85.281 97.1089 84.8111 100.496 82.6287 102.714L82.2689 103.08C80.8603 104.512 78.4783 104.225 77.45 102.5Z" fill="#3F2121"/>
</mask>
<g mask="url(#mask2_1_20)">
<path d="M59.5887 103.135C57.8748 98.2915 60.412 92.9754 65.2557 91.2615L72.9298 88.546C77.7735 86.8321 83.0896 89.3693 84.8035 94.213L59.5887 103.135Z" fill="#081A3D"/>
</g>
<path d="M74.2603 98.1586C74.7889 100.763 75.006 103.076 76.766 102.719C77.3732 102.596 81.1622 99.47 80.6336 96.8653C80.105 94.2605 78.2498 92.4385 76.4899 92.7956C74.7299 93.1528 73.7317 95.5539 74.2603 98.1586Z" fill="#F9B8A4"/>
<path d="M77.9514 97.5397C78.1195 97.659 78.3525 97.6195 78.4719 97.4514C78.5912 97.2833 78.5517 97.0502 78.3836 96.9309C78.1384 96.7568 77.7312 96.5435 77.2864 96.4695C76.8331 96.394 76.2872 96.4593 75.8829 96.9275C75.7481 97.0836 75.7654 97.3193 75.9214 97.454C76.0774 97.5888 76.3132 97.5716 76.4479 97.4155C76.4937 97.3626 76.5438 97.3197 76.598 97.2861C76.517 97.4331 76.4584 97.5886 76.4445 97.7553C76.4186 98.0642 76.5496 98.3253 76.7425 98.5621C76.8727 98.7219 77.1079 98.7459 77.2677 98.6157C77.4275 98.4855 77.4515 98.2503 77.3213 98.0905C77.1901 97.9295 77.1853 97.856 77.1885 97.8176C77.1937 97.7555 77.2333 97.6478 77.3946 97.4322C77.4282 97.3873 77.4502 97.3373 77.461 97.2858C77.6553 97.3563 77.8309 97.4542 77.9514 97.5397Z" fill="#DB8C74"/>
<path d="M68.8158 88.012L66.1213 89.6179L71.5124 98.6635C71.9558 99.4075 72.9185 99.6512 73.6625 99.2078C74.4066 98.7643 74.6502 97.8017 74.2068 97.0576L68.8158 88.012Z" fill="#081A3D"/>
<path d="M65.1755 107.288C65.2385 107.654 64.3502 110.633 59.9409 112.145" stroke="#DB8C74" stroke-width="0.919704" stroke-linecap="round" stroke-linejoin="round"/>
<path d="M110.77 90.6733C119.479 93.4398 128.781 88.6225 131.548 79.9137C134.314 71.2049 129.497 61.9023 120.788 59.1359C112.079 56.3694 102.777 61.1866 100.01 69.8954C97.2437 78.6043 102.061 87.9068 110.77 90.6733Z" fill="#081A3D"/>
<path d="M121.59 88.0346C126.597 89.6253 131.946 86.8554 133.537 81.8478C135.128 76.8403 132.358 71.4913 127.35 69.9006C122.343 68.3099 116.994 71.0798 115.403 76.0873C113.812 81.0949 116.582 86.4439 121.59 88.0346Z" fill="#081A3D"/>
<path d="M111.071 121.149C123.481 125.091 136.737 118.227 140.679 105.816C144.621 93.4064 137.757 80.1503 125.347 76.2081C112.937 72.2659 99.6807 79.1304 95.7385 91.5405C91.7962 103.951 98.6608 117.207 111.071 121.149Z" fill="#081A3D"/>
<path d="M98.9572 78.6751L95.5142 83.2337C95.0639 83.83 95.4579 84.6878 96.2037 84.7345L99.5693 84.9454L103.925 99.2089L108.896 113.783L121.942 108.475L110.811 81.1194L98.9572 78.6751Z" fill="#F9B8A4"/>
<mask id="mask3_1_20" style="mask-type:alpha" maskUnits="userSpaceOnUse" x="99" y="78" width="23" height="36">
<path d="M107.735 78.3167L99.9581 85.8927C99.7278 86.117 99.6285 86.4437 99.6951 86.7583L99.9706 88.0606L103.926 99.2086L108.897 113.783L121.942 108.475L110.811 81.1192L107.735 78.3167Z" fill="#F9B8A4"/>
</mask>
<g mask="url(#mask3_1_20)">
<path d="M101.361 98.9474C101.387 98.3428 101.981 96.0363 100.992 95.1641L110.567 95.9349C111.211 95.9867 111.506 96.6739 110.973 97.0386C108.034 99.0511 101.335 99.5328 101.361 98.9474Z" fill="#F49D82"/>
</g>
<path d="M106.048 90.763C104.16 91.2148 102.262 90.0502 101.81 88.1617C101.359 86.2732 102.523 84.376 104.412 83.9242C106.3 83.4723 108.197 84.637 108.649 86.5254C109.101 88.4139 107.936 90.3111 106.048 90.763Z" fill="#F49D82"/>
<path d="M120.576 88.8448C118.306 98.8491 105.825 96.6692 100.035 95.0734C98.2035 94.5685 96.9776 92.9383 96.9608 91.0384C96.9248 86.9505 97.2924 79.5475 99.9537 73.3335C103.86 64.2121 109.917 65.1617 115.588 67.5903C121.258 70.0189 124.482 79.7234 120.576 88.8448Z" fill="#F9B8A4"/>
<path d="M104.021 80.5921C103.896 80.1186 103.232 79.1715 101.582 79.1711" stroke="#081A3D" stroke-width="0.918444" stroke-linecap="round"/>
<path d="M120.543 67.2263C118.577 62.7376 112.845 61.3519 108.977 64.361C105.7 66.9106 105.059 71.6738 107.609 74.9506C110.204 78.2858 115.037 78.8274 118.306 76.1494L118.421 76.0549C121.027 73.9201 121.894 70.3121 120.543 67.2263Z" fill="#081A3D"/>
<path d="M120.541 92.8138L129.069 81.8534C129.592 81.1815 129.565 80.2333 129.005 79.5924L121.746 71.2898C120.797 70.2043 119.018 70.6414 118.68 72.0432L115.52 85.1567C114.68 88.6398 116.882 92.1286 120.387 92.87C120.445 92.8822 120.505 92.8604 120.541 92.8138Z" fill="#081A3D"/>
<path d="M117.753 65.0048C114.233 62.8074 110.263 60.4708 106.3 61.7014C102.686 62.8237 99.5591 65.8506 98.2374 70.0114L98.0523 70.5942C97.8478 71.2379 98.1527 71.9092 98.7333 72.0936C100.388 72.6194 102.196 72.0516 103.253 70.6737L104.704 68.7823C103.798 71.3429 105.192 74.1452 107.78 74.9676L110.297 75.767C110.878 75.9514 111.514 75.5791 111.719 74.9354L118.73 65.6146L117.753 65.0048Z" fill="#081A3D"/>
<path d="M108.867 87.5742C107.201 88.6694 104.962 88.2065 103.867 86.5403C102.772 84.8741 103.235 82.6355 104.901 81.5404C106.567 80.4452 108.806 80.9081 109.901 82.5743C110.996 84.2405 110.533 86.479 108.867 87.5742Z" fill="#F49D82"/>
<path d="M106.803 79.1197C107.675 78.1347 106.086 75.9953 104.198 74.833C103.501 74.4041 102.637 74.7212 102.202 75.4138C102.073 75.6179 102.18 75.8916 102.401 75.9872C104.224 76.7751 106.566 79.3879 106.803 79.1197Z" fill="#081A3D"/>
<path d="M113.964 79.8538C114.094 82.4858 113.962 84.785 115.74 84.6975C116.354 84.6673 120.534 82.1688 120.404 79.5367C120.275 76.9047 118.728 74.842 116.95 74.9295C115.171 75.0171 113.835 77.2217 113.964 79.8538Z" fill="#F9B8A4"/>
<path d="M117.108 81.0875C117.108 81.2919 117.275 81.457 117.479 81.4563C117.683 81.4555 117.849 81.2892 117.848 81.0848C117.847 80.7867 117.784 80.3352 117.587 79.9339C117.386 79.5248 117.019 79.1223 116.408 79.0664C116.204 79.0477 116.024 79.1976 116.005 79.4012C115.987 79.6047 116.137 79.7849 116.34 79.8035C116.409 79.8099 116.473 79.8255 116.531 79.8499C116.366 79.8693 116.207 79.9118 116.064 79.9968C115.8 80.1541 115.665 80.4104 115.586 80.7025C115.532 80.8998 115.648 81.1032 115.845 81.157C116.043 81.2107 116.246 81.0944 116.3 80.8972C116.354 80.6986 116.41 80.6522 116.443 80.6327C116.496 80.601 116.606 80.5709 116.873 80.5765C116.929 80.5777 116.982 80.5665 117.029 80.5456C117.085 80.743 117.107 80.941 117.108 81.0875Z" fill="#DB8C74"/>
<path d="M115.348 72.1635L110.348 70.1413L112.235 79.7178C112.254 79.8146 112.29 79.9075 112.34 79.9926C112.75 80.6875 113.803 80.5014 113.95 79.708L115.348 72.1635Z" fill="#081A3D"/>
<path d="M124.577 97.4863L142.631 110.603L128.22 179.699L105.824 132.243C99.5375 118.923 105.342 103.034 118.735 96.903C120.645 96.0286 122.878 96.2515 124.577 97.4863Z" fill="#116AE8"/>
<path d="M102.712 69.3587C104.003 66.7687 104.22 64.2561 103.198 63.7467C102.176 63.2372 100.301 64.9238 99.0098 67.5138C97.7191 70.1038 97.5015 72.6164 98.5238 73.1259C99.5461 73.6353 101.421 71.9487 102.712 69.3587Z" fill="#081A3D"/>
<path d="M108.152 69.6083C107.727 66.7459 106.466 64.5614 105.336 64.7291C104.207 64.8969 103.635 67.3533 104.06 70.2157C104.485 73.0781 105.745 75.2626 106.875 75.0949C108.005 74.9271 108.577 72.4707 108.152 69.6083Z" fill="#081A3D"/>
<path d="M106.829 84.9831C107.804 84.8254 108.757 85.512 108.53 86.4729C108.392 87.0548 108.141 87.6038 107.791 88.0886C107.442 88.5735 107 88.9846 106.491 89.2987C105.982 89.6128 105.416 89.8235 104.826 89.919C104.236 90.0144 103.633 89.9927 103.051 89.855C102.469 89.7173 101.92 89.4664 101.435 89.1166C100.95 88.7667 100.539 88.3248 100.225 87.816C99.7064 86.9758 100.395 86.0236 101.37 85.866L104.099 85.4245L106.829 84.9831Z" fill="white"/>
<path fill-rule="evenodd" clip-rule="evenodd" d="M48.4498 78.8461C49.5488 78.8461 50.1312 77.5468 49.4 76.7263L26.1465 50.6371C25.6403 50.0692 24.7523 50.0692 24.2461 50.6371L0.992617 76.7263C0.261328 77.5468 0.843729 78.8461 1.9428 78.8461H8.0131C8.71606 78.8461 9.28594 79.4159 9.28594 80.1189V152.67C9.28594 153.373 9.8558 153.943 10.5588 153.943H39.8338C40.5368 153.943 41.1067 153.373 41.1067 152.67V80.1189C41.1067 79.4159 41.6765 78.8461 42.3795 78.8461H48.4498Z" fill="#A2D6FD"/>
</g>
</g>
<defs>
<clipPath id="clip0_1_20">
<rect width="140" height="140" fill="white" transform="translate(0.546875 0.796875)"/>
</clipPath>
</defs>
</svg>
