<svg width="1440" height="1252" viewBox="0 0 1440 1252" fill="none" xmlns="http://www.w3.org/2000/svg">
<g filter="url(#filter0_dd_35_2)">
<path d="M1381.88 1208.91H58.1172C38.7896 1208.91 22.9761 1193.1 22.9761 1173.77V56.2288C22.9761 36.9002 38.7896 21.0859 58.1172 21.0859H1381.88C1401.21 21.0859 1417.02 36.9002 1417.02 56.2288V1173.77C1417.02 1193.1 1401.21 1208.91 1381.88 1208.91Z" fill="white"/>
<path d="M1381.88 1211.55H58.1173C37.2083 1211.55 20.3406 1194.68 20.3406 1173.77V56.2288C20.3406 35.3188 37.2083 18.4502 58.1173 18.4502H1381.88C1402.79 18.4502 1419.66 35.3188 1419.66 56.2288V1173.77C1419.66 1194.51 1402.79 1211.55 1381.88 1211.55ZM58.1173 23.7216C40.1953 23.7216 25.6117 38.3059 25.6117 56.2288V1173.77C25.6117 1191.69 40.1953 1206.28 58.1173 1206.28H1381.88C1399.8 1206.28 1414.39 1191.69 1414.39 1173.77V56.2288C1414.39 38.3059 1399.8 23.7216 1381.88 23.7216H58.1173Z" fill="#A5E9D6"/>
</g>
<path d="M190.057 122.129V112.193H199.957V107.621H190.021V101.321H201.181V96.6049H185.053V122.129H190.057ZM214.477 104.345C213.973 104.309 213.613 104.273 213.361 104.273C210.841 104.273 209.185 105.209 208.321 107.045V104.417H203.677V122.129H208.465V114.029C208.465 112.265 208.861 111.005 209.725 110.213C210.553 109.421 211.669 109.025 213.037 109.025C213.505 109.025 213.973 109.097 214.477 109.169V104.345ZM221.161 111.257C221.197 110.393 221.593 109.565 222.313 108.845C223.033 108.125 223.969 107.765 225.121 107.765C226.381 107.765 227.353 108.125 228.001 108.773C228.649 109.457 229.009 110.285 229.081 111.257H221.161ZM229.549 115.865C228.901 117.665 227.533 118.565 225.517 118.565C224.293 118.565 223.285 118.205 222.421 117.413C221.557 116.657 221.089 115.685 221.053 114.533H233.725L233.761 114.281C233.761 114.137 233.761 113.957 233.761 113.705C233.761 113.489 233.797 113.273 233.797 113.057C233.797 110.213 233.005 107.981 231.457 106.325C229.909 104.705 227.785 103.877 225.049 103.877C222.673 103.877 220.657 104.777 218.929 106.505C217.201 108.233 216.337 110.465 216.337 113.201C216.337 116.081 217.201 118.385 219.001 120.113C220.765 121.841 222.925 122.669 225.481 122.669C227.569 122.669 229.297 122.165 230.701 121.085C232.105 120.041 233.041 118.709 233.545 117.053L229.549 115.865ZM241.06 111.257C241.096 110.393 241.492 109.565 242.212 108.845C242.932 108.125 243.868 107.765 245.02 107.765C246.28 107.765 247.252 108.125 247.9 108.773C248.548 109.457 248.908 110.285 248.98 111.257H241.06ZM249.448 115.865C248.8 117.665 247.432 118.565 245.416 118.565C244.192 118.565 243.184 118.205 242.32 117.413C241.456 116.657 240.988 115.685 240.952 114.533H253.624L253.66 114.281C253.66 114.137 253.66 113.957 253.66 113.705C253.66 113.489 253.696 113.273 253.696 113.057C253.696 110.213 252.904 107.981 251.356 106.325C249.808 104.705 247.684 103.877 244.948 103.877C242.572 103.877 240.556 104.777 238.828 106.505C237.1 108.233 236.236 110.465 236.236 113.201C236.236 116.081 237.1 118.385 238.9 120.113C240.664 121.841 242.824 122.669 245.38 122.669C247.468 122.669 249.196 122.165 250.6 121.085C252.004 120.041 252.94 118.709 253.444 117.053L249.448 115.865ZM255.954 117.197C256.026 117.773 256.17 118.349 256.458 118.925C256.746 119.501 257.142 120.113 257.682 120.689C258.222 121.265 258.978 121.769 259.986 122.129C260.958 122.489 262.074 122.669 263.334 122.669C265.494 122.669 267.186 122.093 268.41 120.941C269.598 119.789 270.21 118.421 270.21 116.837C270.21 115.505 269.742 114.353 268.842 113.381C267.942 112.445 266.646 111.761 264.954 111.401L262.434 110.861C261.354 110.681 260.814 110.141 260.814 109.277C260.814 108.773 261.03 108.377 261.462 108.017C261.894 107.693 262.434 107.513 263.082 107.513C263.982 107.513 264.666 107.765 265.134 108.233C265.602 108.737 265.89 109.277 265.998 109.889L269.994 108.989C269.922 108.485 269.742 107.945 269.49 107.369C269.202 106.829 268.842 106.289 268.338 105.749C267.834 105.209 267.114 104.777 266.214 104.417C265.278 104.057 264.234 103.877 263.046 103.877C261.138 103.877 259.554 104.453 258.294 105.569C257.034 106.721 256.422 108.089 256.422 109.673C256.422 110.969 256.818 112.085 257.646 113.021C258.474 113.957 259.734 114.605 261.39 114.965L263.73 115.505C264.99 115.793 265.638 116.369 265.638 117.233C265.638 117.737 265.422 118.169 265.026 118.493C264.594 118.853 264.018 118.997 263.298 118.997C262.29 118.997 261.534 118.745 260.958 118.241C260.382 117.737 260.094 117.089 260.058 116.297L255.954 117.197ZM279.964 99.1249H275.644V101.609C275.644 102.473 275.392 103.157 274.924 103.661C274.456 104.165 273.772 104.417 272.908 104.417H272.008V108.665H275.212V116.909C275.212 118.637 275.716 119.969 276.724 120.941C277.732 121.913 279.1 122.381 280.828 122.381C281.908 122.381 282.808 122.237 283.528 121.949V117.989C283.168 118.097 282.7 118.133 282.052 118.133C281.332 118.133 280.792 117.989 280.468 117.665C280.108 117.377 279.964 116.837 279.964 116.081V108.665H283.528V104.417H279.964V99.1249ZM294.102 129.113L305.226 104.417H300.114L295.758 114.785L291.042 104.417H285.678L293.202 119.897L289.026 129.113H294.102ZM312.914 122.129V96.0649H308.126V122.129H312.914ZM321.532 111.257C321.568 110.393 321.964 109.565 322.684 108.845C323.404 108.125 324.34 107.765 325.492 107.765C326.752 107.765 327.724 108.125 328.372 108.773C329.02 109.457 329.38 110.285 329.452 111.257H321.532ZM329.92 115.865C329.272 117.665 327.904 118.565 325.888 118.565C324.664 118.565 323.656 118.205 322.792 117.413C321.928 116.657 321.46 115.685 321.424 114.533H334.096L334.132 114.281C334.132 114.137 334.132 113.957 334.132 113.705C334.132 113.489 334.168 113.273 334.168 113.057C334.168 110.213 333.376 107.981 331.828 106.325C330.28 104.705 328.156 103.877 325.42 103.877C323.044 103.877 321.028 104.777 319.3 106.505C317.572 108.233 316.708 110.465 316.708 113.201C316.708 116.081 317.572 118.385 319.372 120.113C321.136 121.841 323.296 122.669 325.852 122.669C327.94 122.669 329.668 122.165 331.072 121.085C332.476 120.041 333.412 118.709 333.916 117.053L329.92 115.865Z" fill="#160647"/>
<path d="M212.738 208.046H218.009L210.805 234.227H205.534L199.56 215.602L193.586 234.227H188.315L181.111 208.046H186.558L191.302 225.969L197.1 208.046H202.371L208.17 226.144L212.738 208.046Z" fill="#160647"/>
<path d="M225.037 234.227H220.118V207.519H225.037V217.534C226.267 216.129 228.2 215.601 229.957 215.601C234.526 215.601 236.634 218.764 236.634 222.806V234.227H231.714V223.684C231.714 221.576 230.66 219.994 228.376 219.994C226.267 219.994 225.037 221.576 225.037 223.509V234.227Z" fill="#160647"/>
<path d="M245.068 223.86L249.461 223.157C250.515 222.982 250.866 222.454 250.866 221.927C250.866 220.697 249.812 219.643 247.879 219.643C245.771 219.643 244.541 221.049 244.365 222.63L239.972 221.752C240.324 218.94 242.959 215.777 247.704 215.777C253.502 215.777 255.61 218.94 255.61 222.63V231.592C255.61 232.47 255.786 233.876 255.786 234.403H251.218C251.042 233.876 251.042 232.997 251.042 232.294C250.163 233.7 248.406 234.93 245.771 234.93C241.905 234.93 239.621 232.294 239.621 229.483C239.621 225.969 241.905 224.212 245.068 223.86ZM250.866 226.847V225.969L246.825 226.672C245.595 226.847 244.541 227.55 244.541 228.956C244.541 230.01 245.244 231.064 246.825 231.064C248.933 231.064 250.866 230.186 250.866 226.847Z" fill="#160647"/>
<path d="M265.625 216.129H269.315V220.522H265.625V228.077C265.625 229.659 266.328 230.186 267.734 230.186C268.261 230.186 268.964 230.186 269.315 230.01V234.052C268.788 234.227 267.91 234.579 266.504 234.579C262.99 234.579 260.706 232.47 260.706 228.956V220.522H257.367V216.129H258.246C260.178 216.129 261.057 214.899 261.057 213.317V210.857H265.45V216.129H265.625Z" fill="#160647"/>
<path d="M284.953 223.86L289.346 223.157C290.4 222.982 290.751 222.454 290.751 221.927C290.751 220.697 289.697 219.643 287.764 219.643C285.656 219.643 284.426 221.049 284.25 222.63L279.858 221.752C280.209 218.94 282.844 215.777 287.589 215.777C293.387 215.777 295.495 218.94 295.495 222.63V231.592C295.495 232.47 295.671 233.876 295.671 234.403H291.103C290.927 233.876 290.927 232.997 290.927 232.294C290.048 233.7 288.291 234.93 285.656 234.93C281.79 234.93 279.506 232.294 279.506 229.483C279.506 225.969 281.79 224.212 284.953 223.86ZM290.751 226.847V225.969L286.71 226.672C285.48 226.847 284.426 227.55 284.426 228.956C284.426 230.01 285.129 231.064 286.71 231.064C288.818 231.064 290.751 230.186 290.751 226.847Z" fill="#160647"/>
<path d="M310.606 220.873C310.079 220.697 309.552 220.697 309.2 220.697C306.741 220.697 304.456 221.927 304.456 225.793V234.052H299.537V216.129H304.281V218.765C305.335 216.305 307.97 215.953 309.376 215.953C309.728 215.953 310.079 215.953 310.606 215.953V220.873Z" fill="#160647"/>
<path d="M329.231 228.956C328.352 232.119 325.365 234.754 320.973 234.754C316.053 234.754 311.66 231.24 311.66 225.09C311.66 219.292 315.877 215.602 320.621 215.602C326.244 215.602 329.582 219.116 329.582 225.09C329.582 225.793 329.582 226.496 329.582 226.672H316.58C316.756 229.132 318.689 230.889 321.148 230.889C323.433 230.889 324.663 229.659 325.365 228.077L329.231 228.956ZM324.663 223.157C324.663 221.4 323.433 219.643 320.621 219.643C318.161 219.643 316.756 221.576 316.58 223.157H324.663Z" fill="#160647"/>
<path d="M341.706 241.432L345.923 231.943L338.192 216.129H343.639L348.558 226.672L352.951 216.129H358.222L346.801 241.432H341.706Z" fill="#160647"/>
<path d="M377.198 225.09C377.198 230.713 373.157 234.754 367.71 234.754C362.264 234.754 358.222 230.713 358.222 225.09C358.222 219.467 362.264 215.426 367.71 215.426C373.157 215.426 377.198 219.467 377.198 225.09ZM372.279 225.09C372.279 221.576 369.995 219.994 367.71 219.994C365.426 219.994 363.142 221.752 363.142 225.09C363.142 228.429 365.426 230.186 367.71 230.186C369.995 230.186 372.279 228.604 372.279 225.09Z" fill="#160647"/>
<path d="M391.782 232.295C390.728 234.052 388.619 234.755 386.687 234.755C382.294 234.755 379.834 231.592 379.834 227.55V216.129H384.754V226.672C384.754 228.78 385.808 230.362 388.092 230.362C390.201 230.362 391.606 228.956 391.606 226.847V216.305H396.526V231.24C396.526 232.646 396.702 233.876 396.702 234.579H391.958C391.958 233.876 391.782 232.997 391.782 232.295Z" fill="#160647"/>
<path d="M409.001 234.227V207.519H413.921V234.227H409.001Z" fill="#160647"/>
<path d="M435.884 225.09C435.884 230.713 431.843 234.754 426.396 234.754C420.949 234.754 416.908 230.713 416.908 225.09C416.908 219.467 420.949 215.426 426.396 215.426C431.843 215.426 435.884 219.467 435.884 225.09ZM430.964 225.09C430.964 221.576 428.68 219.994 426.396 219.994C424.112 219.994 421.828 221.752 421.828 225.09C421.828 228.429 424.112 230.186 426.396 230.186C428.68 230.186 430.964 228.604 430.964 225.09Z" fill="#160647"/>
<path d="M456.442 225.09C456.442 230.713 452.4 234.754 446.954 234.754C441.507 234.754 437.465 230.713 437.465 225.09C437.465 219.467 441.507 215.426 446.954 215.426C452.4 215.426 456.442 219.467 456.442 225.09ZM451.522 225.09C451.522 221.576 449.238 219.994 446.954 219.994C444.669 219.994 442.385 221.752 442.385 225.09C442.385 228.429 444.669 230.186 446.954 230.186C449.238 230.186 451.522 228.604 451.522 225.09Z" fill="#160647"/>
<path d="M469.795 223.684L477.175 234.227H471.201L466.457 227.374L464.348 229.483V234.227H459.429V207.519H464.348V222.806L470.674 216.129H477.175L469.795 223.684Z" fill="#160647"/>
<path d="M481.568 207.167C483.325 207.167 484.555 208.573 484.555 210.154C484.555 211.736 483.149 213.141 481.568 213.141C479.986 213.141 478.581 211.736 478.581 210.154C478.581 208.397 479.986 207.167 481.568 207.167ZM479.108 234.227V216.128H484.027V234.227H479.108Z" fill="#160647"/>
<path d="M493.34 234.227H488.42V216.129H493.164V218.413C494.218 216.48 496.502 215.602 498.435 215.602C503.004 215.602 504.936 218.764 504.936 222.806V234.227H500.017V223.684C500.017 221.576 498.962 219.994 496.678 219.994C494.57 219.994 493.34 221.576 493.34 223.684V234.227Z" fill="#160647"/>
<path d="M512.14 234.052C512.492 235.984 514.073 237.566 516.357 237.566C519.52 237.566 521.277 235.984 521.277 232.47V231.064C520.574 232.294 518.817 233.349 516.182 233.349C511.262 233.349 507.748 229.659 507.748 224.563C507.748 219.819 511.262 215.777 516.182 215.777C518.993 215.777 520.75 217.007 521.277 218.237V216.129H526.021V232.294C526.021 237.214 523.385 241.783 516.533 241.783C511.613 241.783 508.275 238.62 507.748 235.282L512.14 234.052ZM521.277 224.563C521.277 221.752 519.344 219.994 517.06 219.994C514.6 219.994 512.667 221.752 512.667 224.563C512.667 227.374 514.424 229.132 517.06 229.132C519.52 229.307 521.277 227.374 521.277 224.563Z" fill="#160647"/>
<path d="M544.294 216.129H547.984V220.522H544.294V228.077C544.294 229.659 544.997 230.186 546.403 230.186C546.93 230.186 547.633 230.186 547.984 230.01V234.052C547.457 234.227 546.579 234.579 545.173 234.579C541.659 234.579 539.375 232.47 539.375 228.956V220.522H536.036V216.129H536.915C538.848 216.129 539.726 214.899 539.726 213.317V210.857H544.119V216.129H544.294Z" fill="#160647"/>
<path d="M568.717 225.09C568.717 230.713 564.676 234.754 559.229 234.754C553.782 234.754 549.741 230.713 549.741 225.09C549.741 219.467 553.782 215.426 559.229 215.426C564.676 215.426 568.717 219.467 568.717 225.09ZM563.798 225.09C563.798 221.576 561.513 219.994 559.229 219.994C556.945 219.994 554.661 221.752 554.661 225.09C554.661 228.429 556.945 230.186 559.229 230.186C561.513 230.186 563.798 228.604 563.798 225.09Z" fill="#160647"/>
<path d="M583.477 225.09C583.477 228.429 585.585 230.186 588.045 230.186C590.505 230.186 591.735 228.604 592.262 227.199L596.655 228.604C595.776 231.592 592.965 234.754 588.221 234.754C582.95 234.754 578.733 230.713 578.733 225.09C578.733 219.467 582.95 215.426 588.221 215.426C593.141 215.426 595.952 218.413 596.83 221.576L592.438 222.982C591.911 221.4 590.856 219.994 588.396 219.994C585.585 219.994 583.477 221.927 583.477 225.09Z" fill="#160647"/>
<path d="M610.36 220.873C609.833 220.697 609.305 220.697 608.954 220.697C606.494 220.697 604.21 221.927 604.21 225.793V234.052H599.29V216.129H604.034V218.765C605.088 216.305 607.724 215.953 609.13 215.953C609.481 215.953 609.833 215.953 610.36 215.953V220.873Z" fill="#160647"/>
<path d="M628.984 228.956C628.106 232.119 625.119 234.754 620.726 234.754C615.807 234.754 611.414 231.24 611.414 225.09C611.414 219.292 615.631 215.602 620.375 215.602C625.997 215.602 629.336 219.116 629.336 225.09C629.336 225.793 629.336 226.496 629.336 226.672H616.334C616.509 229.132 618.442 230.889 620.902 230.889C623.186 230.889 624.416 229.659 625.119 228.077L628.984 228.956ZM624.416 223.157C624.416 221.4 623.186 219.643 620.375 219.643C617.915 219.643 616.509 221.576 616.334 223.157H624.416Z" fill="#160647"/>
<path d="M636.54 223.86L640.932 223.157C641.987 222.982 642.338 222.454 642.338 221.927C642.338 220.697 641.284 219.643 639.351 219.643C637.243 219.643 636.013 221.049 635.837 222.63L631.444 221.752C631.796 218.94 634.431 215.777 639.175 215.777C644.974 215.777 647.082 218.94 647.082 222.63V231.592C647.082 232.47 647.258 233.876 647.258 234.403H642.689C642.514 233.876 642.514 232.997 642.514 232.294C641.635 233.7 639.878 234.93 637.243 234.93C633.377 234.93 631.093 232.294 631.093 229.483C631.093 225.969 633.553 224.212 636.54 223.86ZM642.338 226.847V225.969L638.297 226.672C637.067 226.847 636.013 227.55 636.013 228.956C636.013 230.01 636.715 231.064 638.297 231.064C640.405 231.064 642.338 230.186 642.338 226.847Z" fill="#160647"/>
<path d="M657.097 216.129H660.787V220.522H657.097V228.077C657.097 229.659 657.8 230.186 659.206 230.186C659.733 230.186 660.436 230.186 660.787 230.01V234.052C660.26 234.227 659.382 234.579 657.976 234.579C654.462 234.579 652.178 232.47 652.178 228.956V220.522H648.839V216.129H649.718C651.651 216.129 652.529 214.899 652.529 213.317V210.857H656.922V216.129H657.097Z" fill="#160647"/>
<path d="M680.115 228.956C679.236 232.119 676.249 234.754 671.857 234.754C666.937 234.754 662.544 231.24 662.544 225.09C662.544 219.292 666.761 215.602 671.505 215.602C677.128 215.602 680.466 219.116 680.466 225.09C680.466 225.793 680.466 226.496 680.466 226.672H667.464C667.64 229.132 669.572 230.889 672.032 230.889C674.317 230.889 675.546 229.659 676.249 228.077L680.115 228.956ZM675.546 223.157C675.546 221.4 674.316 219.643 671.505 219.643C669.045 219.643 667.64 221.576 667.464 223.157H675.546Z" fill="#160647"/>
<path d="M686.967 226.32C686.967 225.793 686.792 225.441 686.792 224.739C686.792 222.806 687.67 221.049 689.779 219.467L691.536 218.061C692.59 217.183 693.117 216.304 693.117 215.074C693.117 213.317 691.887 211.736 689.427 211.736C686.792 211.736 685.737 213.844 685.737 215.953C685.737 216.48 685.737 216.831 685.913 217.183L681.345 217.007C681.169 216.48 681.169 215.953 681.169 215.426C681.169 211.384 684.156 207.519 689.603 207.519C695.401 207.519 698.388 211.209 698.388 214.899C698.388 217.886 696.982 219.819 694.698 221.4L693.117 222.454C691.887 223.333 691.184 224.563 691.184 225.969V226.144H686.967V226.32ZM689.076 228.604C690.657 228.604 692.063 230.01 692.063 231.591C692.063 233.173 690.657 234.579 689.076 234.579C687.494 234.579 686.089 233.349 686.089 231.591C686.089 229.834 687.494 228.604 689.076 228.604Z" fill="#160647"/>
<path d="M1257.31 355.47H187.788C183.922 355.47 180.76 352.307 180.76 348.442V263.923C180.76 260.057 183.922 256.895 187.788 256.895H1257.48C1261.35 256.895 1264.51 260.057 1264.51 263.923V348.442C1264.34 352.307 1261.17 355.47 1257.31 355.47Z" fill="white"/>
<path d="M1257.31 358.106H187.788C182.517 358.106 178.124 353.713 178.124 348.442V263.923C178.124 258.652 182.517 254.259 187.788 254.259H1257.48C1262.75 254.259 1267.15 258.652 1267.15 263.923V348.442C1266.97 353.713 1262.75 358.106 1257.31 358.106ZM187.788 259.53C185.328 259.53 183.395 261.463 183.395 263.923V348.442C183.395 350.902 185.328 352.835 187.788 352.835H1257.48C1259.94 352.835 1261.88 350.902 1261.88 348.442V263.923C1261.88 261.463 1259.94 259.53 1257.48 259.53H187.788Z" fill="#47BEB9"/>
<path d="M224.159 312.069L228.903 311.366C229.957 311.191 230.308 310.663 230.308 309.961C230.308 308.203 229.079 306.798 226.443 306.798C223.983 306.798 222.577 308.379 222.402 310.312L219.063 309.609C219.415 306.271 222.577 303.811 226.267 303.811C231.538 303.811 233.647 306.798 233.647 310.312V319.273C233.647 320.855 233.823 321.733 233.823 322.261H230.66C230.66 321.733 230.484 321.206 230.484 319.801C229.781 321.031 228.024 322.788 224.686 322.788C220.996 322.788 218.712 320.328 218.712 317.516C218.888 314.178 221.172 312.421 224.159 312.069ZM230.308 314.529V313.651L224.862 314.529C223.456 314.705 222.226 315.583 222.226 317.165C222.226 318.571 223.28 319.801 225.037 319.801C228.024 319.801 230.308 318.395 230.308 314.529Z" fill="#160647"/>
<path d="M273.532 322.085V301.702L264.571 322.085H261.233L252.447 301.702V322.085H248.933V295.903H253.853L262.99 317.165L272.302 295.903H277.222V322.085H273.532Z" fill="#160647"/>
<path d="M298.834 317.165C297.779 320.328 294.968 322.788 290.927 322.788C286.183 322.788 281.966 319.273 281.966 313.299C281.966 307.676 286.007 303.986 290.4 303.986C295.847 303.986 299.009 307.676 299.009 313.299C299.009 313.826 299.009 314.178 299.009 314.353H285.656C285.656 317.516 287.94 319.801 290.927 319.801C293.738 319.801 295.319 318.219 295.847 316.286L298.834 317.165ZM295.319 311.366C295.319 308.906 293.562 306.798 290.4 306.798C287.413 306.798 285.656 309.082 285.48 311.366H295.319Z" fill="#160647"/>
<path d="M303.402 322.085V304.338H306.74V306.622C307.795 304.689 310.079 303.811 312.187 303.811C314.471 303.811 316.58 304.865 317.458 307.149C318.864 304.689 321.148 303.811 323.432 303.811C326.595 303.811 329.582 305.919 329.582 310.488V322.085H326.068V311.015C326.068 308.731 324.838 306.973 322.378 306.973C319.918 306.973 318.337 308.906 318.337 311.366V322.085H314.823V311.015C314.823 308.731 313.768 306.973 311.133 306.973C308.673 306.973 306.916 308.731 306.916 311.542V322.261H303.402V322.085Z" fill="#160647"/>
<path d="M351.721 313.299C351.721 318.746 348.031 322.788 342.584 322.788C337.137 322.788 333.448 318.746 333.448 313.299C333.448 307.852 337.137 303.811 342.584 303.811C348.031 303.811 351.721 307.852 351.721 313.299ZM348.031 313.299C348.031 309.258 345.396 306.973 342.584 306.973C339.773 306.973 337.137 309.258 337.137 313.299C337.137 317.516 339.773 319.625 342.584 319.625C345.396 319.625 348.031 317.341 348.031 313.299Z" fill="#160647"/>
<path d="M365.953 307.852C365.426 307.852 364.899 307.676 364.372 307.676C361.385 307.676 359.452 309.258 359.452 313.124V322.085H355.938V304.338H359.276V307.501C360.506 304.689 362.79 304.162 364.548 304.162C365.075 304.162 365.426 304.162 365.777 304.338V307.852H365.953Z" fill="#160647"/>
<path d="M371.4 295.2C372.806 295.2 373.86 296.254 373.86 297.66C373.86 299.066 372.806 300.12 371.4 300.12C369.994 300.12 368.94 299.066 368.94 297.66C368.94 296.254 369.994 295.2 371.4 295.2ZM369.643 322.084V304.337H373.157V322.084H369.643Z" fill="#160647"/>
<path d="M383.172 312.069L387.916 311.366C388.971 311.191 389.322 310.663 389.322 309.961C389.322 308.203 388.092 306.798 385.456 306.798C382.997 306.798 381.591 308.379 381.415 310.312L378.077 309.609C378.428 306.271 381.591 303.811 385.281 303.811C390.552 303.811 392.66 306.798 392.66 310.312V319.273C392.66 320.855 392.836 321.733 392.836 322.261H389.498C389.498 321.733 389.322 321.206 389.322 319.801C388.619 321.031 386.862 322.788 383.524 322.788C379.834 322.788 377.55 320.328 377.55 317.516C377.901 314.178 380.185 312.421 383.172 312.069ZM389.322 314.529V313.651L383.875 314.529C382.469 314.705 381.239 315.583 381.239 317.165C381.239 318.571 382.294 319.801 384.051 319.801C387.038 319.801 389.322 318.395 389.322 314.529Z" fill="#160647"/>
<path d="M398.283 322.085V295.376H401.797V322.085H398.283Z" fill="#160647"/>
<path d="M417.259 322.085V295.903H426.396C433.073 295.903 438.871 300.472 438.871 309.082C438.871 317.692 433.073 322.085 426.396 322.085H417.259ZM426.22 318.922C431.14 318.922 435.181 315.759 435.181 309.082C435.181 302.405 431.14 299.242 426.396 299.242H420.949V318.922H426.22Z" fill="#160647"/>
<path d="M447.656 312.069L452.4 311.366C453.455 311.191 453.806 310.663 453.806 309.961C453.806 308.203 452.576 306.798 449.94 306.798C447.481 306.798 446.075 308.379 445.899 310.312L442.561 309.609C442.912 306.271 446.075 303.811 449.765 303.811C455.036 303.811 457.144 306.798 457.144 310.312V319.273C457.144 320.855 457.32 321.733 457.32 322.261H453.982C453.982 321.733 453.806 321.206 453.806 319.801C453.103 321.031 451.346 322.788 448.008 322.788C444.318 322.788 442.034 320.328 442.034 317.516C442.385 314.178 444.669 312.421 447.656 312.069ZM453.806 314.529V313.651L448.359 314.529C446.953 314.705 445.723 315.583 445.723 317.165C445.723 318.571 446.778 319.801 448.535 319.801C451.522 319.801 453.806 318.395 453.806 314.529Z" fill="#160647"/>
<path d="M462.943 329.64L467.335 320.327L459.78 304.513H463.821L469.268 316.813L474.539 304.513H478.229L466.632 329.64H462.943Z" fill="#160647"/>
<path d="M492.285 316.462C492.461 318.219 493.867 319.801 496.502 319.801C498.435 319.801 499.489 318.746 499.489 317.516C499.489 316.462 498.611 315.583 497.205 315.232L494.218 314.529C491.407 314.002 489.826 312.069 489.826 309.609C489.826 306.622 492.637 303.986 496.151 303.986C501.071 303.986 502.476 307.149 502.828 308.731L499.841 309.961C499.665 309.082 498.962 306.973 496.151 306.973C494.394 306.973 493.164 308.203 493.164 309.258C493.164 310.312 493.867 311.015 495.272 311.366L498.084 312.069C501.246 312.772 503.003 314.705 503.003 317.341C503.003 319.801 500.895 322.788 496.502 322.788C491.583 322.788 489.65 319.625 489.298 317.692L492.285 316.462Z" fill="#160647"/>
<path d="M511.437 312.069L516.181 311.366C517.236 311.191 517.587 310.663 517.587 309.961C517.587 308.203 516.357 306.798 513.721 306.798C511.262 306.798 509.856 308.379 509.68 310.312L506.342 309.609C506.693 306.271 509.856 303.811 513.546 303.811C518.817 303.811 520.925 306.798 520.925 310.312V319.273C520.925 320.855 521.101 321.733 521.101 322.261H517.763C517.763 321.733 517.587 321.206 517.587 319.801C516.884 321.031 515.127 322.788 511.789 322.788C508.099 322.788 505.815 320.328 505.815 317.516C505.99 314.178 508.45 312.421 511.437 312.069ZM517.587 314.529V313.651L512.14 314.529C510.734 314.705 509.505 315.583 509.505 317.165C509.505 318.571 510.559 319.801 512.316 319.801C515.303 319.801 517.587 318.395 517.587 314.529Z" fill="#160647"/>
<path d="M526.548 322.085V295.376H530.062V322.085H526.548Z" fill="#160647"/>
<path d="M551.322 317.165C550.268 320.328 547.457 322.788 543.416 322.788C538.672 322.788 534.455 319.273 534.455 313.299C534.455 307.676 538.496 303.986 542.889 303.986C548.335 303.986 551.498 307.676 551.498 313.299C551.498 313.826 551.498 314.178 551.498 314.353H538.145C538.145 317.516 540.429 319.801 543.416 319.801C546.227 319.801 547.808 318.219 548.335 316.286L551.322 317.165ZM547.808 311.366C547.808 308.906 546.051 306.798 542.889 306.798C539.902 306.798 538.145 309.082 537.969 311.366H547.808Z" fill="#160647"/>
<path d="M580.49 317.165C579.435 320.328 576.624 322.788 572.583 322.788C567.839 322.788 563.622 319.273 563.622 313.299C563.622 307.676 567.663 303.986 572.056 303.986C577.503 303.986 580.665 307.676 580.665 313.299C580.665 313.826 580.665 314.178 580.665 314.353H567.312C567.312 317.516 569.596 319.801 572.583 319.801C575.394 319.801 576.975 318.219 577.503 316.286L580.49 317.165ZM576.975 311.366C576.975 308.906 575.218 306.798 572.056 306.798C569.069 306.798 567.312 309.082 567.136 311.366H576.975Z" fill="#160647"/>
<path d="M585.058 322.085V304.338H588.396V306.622C589.451 304.689 591.735 303.811 593.843 303.811C596.127 303.811 598.236 304.865 599.114 307.149C600.52 304.689 602.804 303.811 605.088 303.811C608.251 303.811 611.238 305.919 611.238 310.488V322.085H607.724V311.015C607.724 308.731 606.494 306.973 604.034 306.973C601.574 306.973 599.993 308.906 599.993 311.366V322.085H596.479V311.015C596.479 308.731 595.425 306.973 592.789 306.973C590.329 306.973 588.572 308.731 588.572 311.542V322.261H585.058V322.085Z" fill="#160647"/>
<path d="M620.902 312.069L625.646 311.366C626.7 311.191 627.052 310.663 627.052 309.961C627.052 308.203 625.822 306.798 623.186 306.798C620.726 306.798 619.321 308.379 619.145 310.312L615.806 309.609C616.158 306.271 619.321 303.811 623.01 303.811C628.281 303.811 630.39 306.798 630.39 310.312V319.273C630.39 320.855 630.566 321.733 630.566 322.261H627.227C627.227 321.733 627.052 321.206 627.052 319.801C626.349 321.031 624.592 322.788 621.253 322.788C617.563 322.788 615.279 320.328 615.279 317.516C615.631 314.178 617.915 312.421 620.902 312.069ZM627.052 314.529V313.651L621.605 314.529C620.199 314.705 618.969 315.583 618.969 317.165C618.969 318.571 620.023 319.801 621.78 319.801C624.767 319.801 627.052 318.395 627.052 314.529Z" fill="#160647"/>
<path d="M637.77 295.2C639.175 295.2 640.23 296.254 640.23 297.66C640.23 299.066 639.175 300.12 637.77 300.12C636.364 300.12 635.31 299.066 635.31 297.66C635.134 296.254 636.364 295.2 637.77 295.2ZM636.013 322.084V304.337H639.527V322.084H636.013Z" fill="#160647"/>
<path d="M645.325 322.085V295.376H648.839V322.085H645.325Z" fill="#160647"/>
<path d="M693.82 279.562H692.063V330.694H693.82V279.562Z" fill="#160647"/>
<g opacity="0.5">
<path opacity="0.5" d="M212.738 409.414H218.009L210.805 435.595H205.534L199.56 416.97L193.586 435.595H188.315L181.111 409.414H186.558L191.302 427.337L197.1 409.414H202.371L208.17 427.513L212.738 409.414Z" fill="#160647"/>
<path opacity="0.5" d="M225.037 435.42H220.118V408.711H225.037V418.727C226.267 417.321 228.2 416.794 229.957 416.794C234.526 416.794 236.634 419.957 236.634 423.998V435.42H231.714V424.877C231.714 422.768 230.66 421.187 228.376 421.187C226.267 421.187 225.037 422.768 225.037 424.701V435.42Z" fill="#160647"/>
<path opacity="0.5" d="M245.068 425.053L249.461 424.35C250.515 424.174 250.866 423.647 250.866 423.12C250.866 421.89 249.812 420.835 247.879 420.835C245.771 420.835 244.541 422.241 244.365 423.823L239.972 422.944C240.324 420.133 242.959 416.97 247.704 416.97C253.502 416.97 255.61 420.133 255.61 423.823V432.784C255.61 433.663 255.786 435.068 255.786 435.595H251.218C251.042 435.068 251.042 434.19 251.042 433.487C250.163 434.893 248.406 436.123 245.771 436.123C241.905 436.123 239.621 433.487 239.621 430.675C239.621 427.337 241.905 425.58 245.068 425.053ZM250.866 428.215V427.337L246.825 428.04C245.595 428.215 244.541 428.918 244.541 430.324C244.541 431.378 245.244 432.433 246.825 432.433C248.933 432.433 250.866 431.378 250.866 428.215Z" fill="#160647"/>
<path opacity="0.5" d="M265.625 417.321H269.315V421.714H265.625V429.27C265.625 430.851 266.328 431.378 267.734 431.378C268.261 431.378 268.964 431.378 269.315 431.203V435.244C268.788 435.42 267.91 435.771 266.504 435.771C262.99 435.771 260.706 433.663 260.706 430.148V421.714H257.367V417.321H258.246C260.178 417.321 261.057 416.091 261.057 414.51V412.05H265.45V417.321H265.625Z" fill="#160647"/>
<path opacity="0.5" d="M284.953 425.053L289.346 424.35C290.4 424.174 290.751 423.647 290.751 423.12C290.751 421.89 289.697 420.835 287.764 420.835C285.656 420.835 284.426 422.241 284.25 423.823L279.858 422.944C280.209 420.133 282.844 416.97 287.589 416.97C293.387 416.97 295.495 420.133 295.495 423.823V432.784C295.495 433.663 295.671 435.068 295.671 435.595H291.103C290.927 435.068 290.927 434.19 290.927 433.487C290.048 434.893 288.291 436.123 285.656 436.123C281.79 436.123 279.506 433.487 279.506 430.675C279.506 427.337 281.79 425.58 284.953 425.053ZM290.751 428.215V427.337L286.71 428.04C285.48 428.215 284.426 428.918 284.426 430.324C284.426 431.378 285.129 432.433 286.71 432.433C288.818 432.433 290.751 431.378 290.751 428.215Z" fill="#160647"/>
<path opacity="0.5" d="M310.606 422.241C310.079 422.066 309.552 422.066 309.2 422.066C306.741 422.066 304.456 423.296 304.456 427.161V435.42H299.537V417.321H304.281V419.957C305.335 417.497 307.97 417.146 309.376 417.146C309.728 417.146 310.079 417.146 310.606 417.146V422.241Z" fill="#160647"/>
<path opacity="0.5" d="M329.231 430.324C328.352 433.487 325.365 436.123 320.973 436.123C316.053 436.123 311.66 432.608 311.66 426.458C311.66 420.66 315.877 416.97 320.621 416.97C326.244 416.97 329.582 420.484 329.582 426.458C329.582 427.161 329.582 427.864 329.582 428.04H316.58C316.756 430.5 318.689 432.257 321.148 432.257C323.433 432.257 324.663 431.027 325.365 429.445L329.231 430.324ZM324.663 424.35C324.663 422.593 323.433 420.835 320.621 420.835C318.161 420.835 316.756 422.768 316.58 424.35H324.663Z" fill="#160647"/>
<path opacity="0.5" d="M346.626 417.321H350.316V421.714H346.626V429.27C346.626 430.851 347.329 431.378 348.734 431.378C349.261 431.378 349.964 431.378 350.316 431.203V435.244C349.788 435.42 348.91 435.771 347.504 435.771C343.99 435.771 341.706 433.663 341.706 430.148V421.714H338.368V417.321H339.246C341.179 417.321 342.057 416.091 342.057 414.51V412.05H346.45V417.321H346.626Z" fill="#160647"/>
<path opacity="0.5" d="M357.695 435.42H352.775V408.711H357.695V418.727C358.925 417.321 360.858 416.794 362.615 416.794C367.183 416.794 369.292 419.957 369.292 423.998V435.42H364.372V424.877C364.372 422.768 363.318 421.187 361.034 421.187C358.925 421.187 357.695 422.768 357.695 424.701V435.42Z" fill="#160647"/>
<path opacity="0.5" d="M389.674 430.324C388.795 433.487 385.808 436.123 381.415 436.123C376.496 436.123 372.103 432.608 372.103 426.458C372.103 420.66 376.32 416.97 381.064 416.97C386.687 416.97 390.025 420.484 390.025 426.458C390.025 427.161 390.025 427.864 390.025 428.04H377.023C377.198 430.5 379.131 432.257 381.591 432.257C383.875 432.257 385.105 431.027 385.808 429.445L389.674 430.324ZM385.105 424.35C385.105 422.593 383.875 420.835 381.064 420.835C378.604 420.835 377.198 422.768 377.023 424.35H385.105Z" fill="#160647"/>
<path opacity="0.5" d="M401.094 435.42V417.321H405.838V419.605C406.893 417.848 409.177 416.794 411.11 416.794C413.569 416.794 415.502 417.848 416.556 419.781C417.962 417.497 419.895 416.794 422.355 416.794C425.693 416.794 428.856 418.903 428.856 423.647V435.42H423.936V424.701C423.936 422.768 423.058 421.187 420.773 421.187C418.665 421.187 417.435 422.768 417.435 424.701V435.244H412.515V424.525C412.515 422.593 411.461 421.011 409.353 421.011C407.244 421.011 406.014 422.593 406.014 424.525V435.068H401.094V435.42Z" fill="#160647"/>
<path opacity="0.5" d="M437.114 425.053L441.507 424.35C442.561 424.174 442.912 423.647 442.912 423.12C442.912 421.89 441.858 420.835 439.925 420.835C437.817 420.835 436.587 422.241 436.411 423.823L432.019 422.944C432.37 420.133 435.006 416.97 439.75 416.97C445.548 416.97 447.656 420.133 447.656 423.823V432.784C447.656 433.663 447.832 435.068 447.832 435.595H443.264C443.088 435.068 443.088 434.19 443.088 433.487C442.209 434.893 440.452 436.123 437.817 436.123C433.951 436.123 431.667 433.487 431.667 430.675C431.667 427.337 434.127 425.58 437.114 425.053ZM442.912 428.215V427.337L438.871 428.04C437.641 428.215 436.587 428.918 436.587 430.324C436.587 431.378 437.29 432.433 438.871 432.433C440.98 432.433 442.912 431.378 442.912 428.215Z" fill="#160647"/>
<path opacity="0.5" d="M454.157 408.359C455.914 408.359 457.144 409.765 457.144 411.347C457.144 412.928 455.739 414.334 454.157 414.334C452.576 414.334 451.17 412.928 451.17 411.347C451.17 409.765 452.576 408.359 454.157 408.359ZM451.698 435.419V417.321H456.617V435.419H451.698Z" fill="#160647"/>
<path opacity="0.5" d="M465.93 435.42H461.01V417.321H465.754V419.605C466.808 417.673 469.092 416.794 471.025 416.794C475.594 416.794 477.526 419.957 477.526 423.998V435.42H472.607V424.877C472.607 422.768 471.552 421.187 469.268 421.187C467.16 421.187 465.93 422.768 465.93 424.877V435.42Z" fill="#160647"/>
<path opacity="0.5" d="M489.826 442.448V417.321H494.57V419.605C495.448 418.2 497.381 416.97 500.192 416.97C505.463 416.97 508.626 421.011 508.626 426.458C508.626 431.905 505.112 435.947 500.017 435.947C497.557 435.947 495.624 434.893 494.745 433.663V442.448H489.826ZM499.138 421.363C496.678 421.363 494.57 423.295 494.57 426.458C494.57 429.621 496.678 431.554 499.138 431.554C501.598 431.554 503.706 429.621 503.706 426.458C503.706 423.295 501.598 421.363 499.138 421.363Z" fill="#160647"/>
<path opacity="0.5" d="M529.184 426.458C529.184 432.081 525.142 436.123 519.696 436.123C514.249 436.123 510.208 432.081 510.208 426.458C510.208 420.835 514.249 416.794 519.696 416.794C525.142 416.794 529.184 420.835 529.184 426.458ZM524.264 426.458C524.264 422.944 521.98 421.363 519.696 421.363C517.411 421.363 515.127 423.12 515.127 426.458C515.127 429.797 517.411 431.554 519.696 431.554C521.98 431.554 524.264 429.797 524.264 426.458Z" fill="#160647"/>
<path opacity="0.5" d="M534.455 408.359C536.212 408.359 537.442 409.765 537.442 411.347C537.442 412.928 536.036 414.334 534.455 414.334C532.874 414.334 531.468 412.928 531.468 411.347C531.468 409.765 532.874 408.359 534.455 408.359ZM531.995 435.419V417.321H536.915V435.419H531.995Z" fill="#160647"/>
<path opacity="0.5" d="M546.227 435.42H541.307V417.321H546.051V419.605C547.106 417.673 549.39 416.794 551.323 416.794C555.891 416.794 557.824 419.957 557.824 423.998V435.42H552.904V424.877C552.904 422.768 551.85 421.187 549.566 421.187C547.457 421.187 546.227 422.768 546.227 424.877V435.42Z" fill="#160647"/>
<path opacity="0.5" d="M568.015 417.321H571.704V421.714H568.015V429.27C568.015 430.851 568.717 431.378 570.123 431.378C570.65 431.378 571.353 431.378 571.704 431.203V435.244C571.177 435.42 570.299 435.771 568.893 435.771C565.379 435.771 563.095 433.663 563.095 430.148V421.714H559.756V417.321H560.635C562.568 417.321 563.446 416.091 563.446 414.51V412.05H567.839V417.321H568.015Z" fill="#160647"/>
<path opacity="0.5" d="M577.854 429.445C578.03 430.851 579.084 432.257 581.193 432.257C582.774 432.257 583.652 431.378 583.652 430.5C583.652 429.621 583.125 429.094 581.72 428.743L579.26 428.215C575.746 427.513 574.164 425.404 574.164 422.768C574.164 419.605 576.976 416.794 581.017 416.794C586.112 416.794 587.869 420.133 588.221 422.065L584.18 422.944C584.004 421.89 583.301 420.484 581.193 420.484C579.963 420.484 578.908 421.187 578.908 422.241C578.908 423.12 579.611 423.647 580.49 423.823L583.125 424.35C586.639 425.053 588.572 427.337 588.572 429.973C588.572 432.96 586.288 435.947 581.544 435.947C576.097 435.947 574.164 432.433 573.989 430.324L577.854 429.445Z" fill="#160647"/>
<path opacity="0.5" d="M600.696 442.624L604.913 433.136L597.182 417.321H602.629L607.548 427.864L611.941 417.321H617.212L605.791 442.624H600.696Z" fill="#160647"/>
<path opacity="0.5" d="M636.188 426.458C636.188 432.081 632.147 436.123 626.7 436.123C621.253 436.123 617.212 432.081 617.212 426.458C617.212 420.835 621.253 416.794 626.7 416.794C632.147 416.794 636.188 420.835 636.188 426.458ZM631.269 426.458C631.269 422.944 628.984 421.363 626.7 421.363C624.416 421.363 622.132 423.12 622.132 426.458C622.132 429.797 624.416 431.554 626.7 431.554C628.984 431.554 631.269 429.797 631.269 426.458Z" fill="#160647"/>
<path opacity="0.5" d="M650.772 433.487C649.718 435.244 647.609 435.947 645.677 435.947C641.284 435.947 638.824 432.784 638.824 428.743V417.321H643.744V427.864C643.744 429.973 644.798 431.554 647.082 431.554C649.191 431.554 650.596 430.148 650.596 428.04V417.497H655.516V432.433C655.516 433.838 655.692 435.068 655.692 435.771H650.948C650.772 435.068 650.772 434.366 650.772 433.487Z" fill="#160647"/>
<path opacity="0.5" d="M683.277 417.321L687.143 429.094L690.481 417.321H695.401L689.779 435.42H684.859L680.642 422.944L676.425 435.42H671.505L665.707 417.321H670.802L674.141 428.918L678.006 417.321H683.277Z" fill="#160647"/>
<path opacity="0.5" d="M701.902 425.053L706.295 424.35C707.349 424.174 707.7 423.647 707.7 423.12C707.7 421.89 706.646 420.835 704.713 420.835C702.605 420.835 701.375 422.241 701.199 423.823L696.807 422.944C697.158 420.133 699.794 416.97 704.538 416.97C710.336 416.97 712.445 420.133 712.445 423.823V432.784C712.445 433.663 712.62 435.068 712.62 435.595H708.052C707.876 435.068 707.876 434.19 707.876 433.487C706.998 434.893 705.241 436.123 702.605 436.123C698.739 436.123 696.455 433.487 696.455 430.675C696.455 427.337 698.915 425.58 701.902 425.053ZM707.7 428.215V427.337L703.659 428.04C702.429 428.215 701.375 428.918 701.375 430.324C701.375 431.378 702.078 432.433 703.659 432.433C705.768 432.433 707.7 431.378 707.7 428.215Z" fill="#160647"/>
<path opacity="0.5" d="M721.406 435.42H716.486V417.321H721.23V419.605C722.284 417.673 724.568 416.794 726.501 416.794C731.069 416.794 733.002 419.957 733.002 423.998V435.42H728.082V424.877C728.082 422.768 727.028 421.187 724.744 421.187C722.636 421.187 721.406 422.768 721.406 424.877V435.42Z" fill="#160647"/>
<path opacity="0.5" d="M743.193 417.321H746.883V421.714H743.193V429.27C743.193 430.851 743.896 431.378 745.302 431.378C745.829 431.378 746.531 431.378 746.883 431.203V435.244C746.356 435.42 745.477 435.771 744.072 435.771C740.558 435.771 738.273 433.663 738.273 430.148V421.714H734.935V417.321H735.813C737.746 417.321 738.625 416.091 738.625 414.51V412.05H743.017V417.321H743.193Z" fill="#160647"/>
<path opacity="0.5" d="M764.278 417.321H767.967V421.714H764.278V429.27C764.278 430.851 764.981 431.378 766.386 431.378C766.913 431.378 767.616 431.378 767.967 431.203V435.244C767.44 435.42 766.562 435.771 765.156 435.771C761.642 435.771 759.358 433.663 759.358 430.148V421.714H756.02V417.321H756.898C758.831 417.321 759.709 416.091 759.709 414.51V412.05H764.102V417.321H764.278Z" fill="#160647"/>
<path opacity="0.5" d="M788.701 426.458C788.701 432.081 784.66 436.123 779.213 436.123C773.766 436.123 769.725 432.081 769.725 426.458C769.725 420.835 773.766 416.794 779.213 416.794C784.66 416.794 788.701 420.835 788.701 426.458ZM783.781 426.458C783.781 422.944 781.497 421.363 779.213 421.363C776.929 421.363 774.644 423.12 774.644 426.458C774.644 429.797 776.929 431.554 779.213 431.554C781.497 431.554 783.781 429.797 783.781 426.458Z" fill="#160647"/>
<path opacity="0.5" d="M803.284 426.458C803.284 429.797 805.393 431.554 807.853 431.554C810.313 431.554 811.542 429.973 812.07 428.567L816.462 429.973C815.584 432.96 812.772 436.123 808.028 436.123C802.757 436.123 798.54 432.081 798.54 426.458C798.54 420.835 802.757 416.794 808.028 416.794C812.948 416.794 815.759 419.781 816.638 422.944L812.245 424.35C811.718 422.768 810.664 421.363 808.204 421.363C805.393 421.363 803.284 423.12 803.284 426.458Z" fill="#160647"/>
<path opacity="0.5" d="M836.668 426.458C836.668 432.081 832.627 436.123 827.18 436.123C821.733 436.123 817.692 432.081 817.692 426.458C817.692 420.835 821.733 416.794 827.18 416.794C832.627 416.794 836.668 420.835 836.668 426.458ZM831.749 426.458C831.749 422.944 829.464 421.363 827.18 421.363C824.896 421.363 822.612 423.12 822.612 426.458C822.612 429.797 824.896 431.554 827.18 431.554C829.464 431.554 831.749 429.797 831.749 426.458Z" fill="#160647"/>
<path opacity="0.5" d="M849.144 435.42H844.224L836.844 417.321H842.291L846.859 429.446L851.252 417.321H856.347L849.144 435.42Z" fill="#160647"/>
<path opacity="0.5" d="M873.918 430.324C873.039 433.487 870.052 436.123 865.66 436.123C860.74 436.123 856.347 432.608 856.347 426.458C856.347 420.66 860.564 416.97 865.308 416.97C870.931 416.97 874.269 420.484 874.269 426.458C874.269 427.161 874.269 427.864 874.269 428.04H861.267C861.443 430.5 863.376 432.257 865.835 432.257C868.12 432.257 869.35 431.027 870.052 429.445L873.918 430.324ZM869.35 424.35C869.35 422.593 868.12 420.835 865.308 420.835C862.849 420.835 861.443 422.768 861.267 424.35H869.35Z" fill="#160647"/>
<path opacity="0.5" d="M888.15 422.241C887.623 422.066 887.096 422.066 886.744 422.066C884.284 422.066 882 423.296 882 427.161V435.42H877.081V417.321H881.825V419.957C882.879 417.497 885.514 417.146 886.92 417.146C887.271 417.146 887.623 417.146 888.15 417.146V422.241Z" fill="#160647"/>
<path opacity="0.5" d="M895.881 427.512C895.881 426.985 895.705 426.634 895.705 425.931C895.705 423.998 896.584 422.241 898.692 420.659L900.45 419.254C901.504 418.375 902.031 417.497 902.031 416.267C902.031 414.509 900.801 412.928 898.341 412.928C895.705 412.928 894.651 415.037 894.651 417.145C894.651 417.672 894.651 418.024 894.827 418.375L890.259 418.199C890.083 417.672 890.083 417.145 890.083 416.618C890.083 412.577 893.07 408.711 898.517 408.711C904.315 408.711 907.302 412.401 907.302 416.091C907.302 419.078 905.896 421.011 903.612 422.592L902.031 423.647C900.801 424.525 900.098 425.755 900.098 427.161V427.337H895.881V427.512ZM897.99 429.972C899.571 429.972 900.977 431.378 900.977 432.959C900.977 434.541 899.571 435.947 897.99 435.947C896.408 435.947 895.003 434.717 895.003 432.959C895.003 431.202 896.408 429.972 897.99 429.972Z" fill="#160647"/>
</g>
<path d="M1257.31 679.838H187.788C183.922 679.838 180.76 676.675 180.76 672.81V465.115C180.76 461.25 183.922 458.087 187.788 458.087H1257.48C1261.35 458.087 1264.51 461.25 1264.51 465.115V672.81C1264.34 676.675 1261.17 679.838 1257.31 679.838Z" fill="white"/>
<path d="M1257.31 682.474H187.788C182.517 682.474 178.124 678.081 178.124 672.81V465.115C178.124 459.844 182.517 455.451 187.788 455.451H1257.48C1262.75 455.451 1267.15 459.844 1267.15 465.115V672.81C1266.97 678.081 1262.75 682.474 1257.31 682.474ZM187.788 460.723C185.328 460.723 183.395 462.655 183.395 465.115V672.81C183.395 675.27 185.328 677.203 187.788 677.203H1257.48C1259.94 677.203 1261.88 675.27 1261.88 672.81V465.115C1261.88 462.655 1259.94 460.723 1257.48 460.723H187.788Z" fill="#E5E7EA"/>
<path d="M220.293 528.899V494.459H227.497V497.27H223.456V526.088H227.497V528.899H220.293Z" fill="#ADAAC0"/>
<path d="M230.484 530.481V505.705H233.823V508.516C234.701 506.759 236.81 505.354 239.797 505.354C245.068 505.354 247.879 509.395 247.879 514.666C247.879 519.938 244.892 523.979 239.621 523.979C236.81 523.979 234.877 522.749 233.823 521.168V530.656H230.484V530.481ZM239.27 508.341C236.107 508.341 233.998 510.976 233.998 514.491C233.998 518.181 236.107 520.816 239.27 520.816C242.432 520.816 244.541 518.181 244.541 514.491C244.541 510.976 242.432 508.341 239.27 508.341Z" fill="#ADAAC0"/>
<path d="M262.287 509.219C261.76 509.219 261.233 509.044 260.706 509.044C257.719 509.044 255.786 510.625 255.786 514.491V523.452H252.272V505.705H255.61V508.868C256.84 506.056 259.124 505.529 260.882 505.529C261.409 505.529 261.76 505.529 262.111 505.705V509.219H262.287Z" fill="#ADAAC0"/>
<path d="M282.493 514.491C282.493 519.938 278.803 523.979 273.356 523.979C267.91 523.979 264.22 519.938 264.22 514.491C264.22 509.043 267.91 505.002 273.356 505.002C278.803 505.002 282.493 509.219 282.493 514.491ZM278.979 514.491C278.979 510.449 276.343 508.165 273.532 508.165C270.721 508.165 268.085 510.449 268.085 514.491C268.085 518.708 270.721 520.816 273.532 520.816C276.343 520.816 278.979 518.708 278.979 514.491Z" fill="#ADAAC0"/>
<path d="M299.361 520.64C298.482 522.397 296.55 523.803 293.914 523.803C288.643 523.803 285.48 519.586 285.48 514.315C285.48 509.219 288.819 505.002 293.914 505.002C297.077 505.002 298.834 506.583 299.361 507.989V496.567H302.875V520.113C302.875 521.87 303.051 523.1 303.051 523.452H299.712C299.712 523.1 299.537 522.046 299.537 520.992V520.64H299.361ZM294.09 520.816C297.253 520.816 299.185 518.005 299.185 514.315C299.185 510.625 297.253 508.165 294.09 508.165C290.927 508.165 288.819 510.8 288.819 514.315C288.819 517.829 290.927 520.816 294.09 520.816Z" fill="#ADAAC0"/>
<path d="M314.823 523.979C310.606 523.979 308.146 520.816 308.146 516.775V505.529H311.66V516.248C311.66 518.708 312.715 520.816 315.702 520.816C318.513 520.816 319.919 519.059 319.919 516.248V505.529H323.433V519.938C323.433 521.344 323.608 522.574 323.608 523.276H320.27C320.27 522.925 320.094 521.871 320.094 521.168C319.216 523.101 316.931 523.979 314.823 523.979Z" fill="#ADAAC0"/>
<path d="M331.164 514.49C331.164 518.532 333.624 520.64 336.611 520.64C339.949 520.64 341.179 518.356 341.53 516.95L344.517 518.356C343.639 520.816 341.179 523.803 336.435 523.803C331.339 523.803 327.474 519.762 327.474 514.315C327.474 508.868 331.339 504.826 336.435 504.826C341.179 504.826 343.639 507.813 344.342 510.449L341.179 511.855C340.652 510.098 339.422 508.165 336.435 508.165C333.799 508.341 331.164 510.449 331.164 514.49Z" fill="#ADAAC0"/>
<path d="M353.303 505.705H357.168V508.868H353.303V518.005C353.303 519.586 354.005 520.465 355.762 520.465C356.29 520.465 356.817 520.465 357.168 520.289V523.276C356.817 523.452 355.938 523.628 354.884 523.628C351.897 523.628 349.964 521.871 349.964 518.532V508.868H346.626V505.705H347.504C349.437 505.705 350.316 504.475 350.316 502.893V500.082H353.478V505.705H353.303Z" fill="#ADAAC0"/>
<path d="M383.348 520.64C382.47 522.397 380.537 523.803 377.901 523.803C372.63 523.803 369.467 519.586 369.467 514.315C369.467 509.219 372.806 505.002 377.901 505.002C381.064 505.002 382.821 506.583 383.348 507.989V496.567H386.862V520.113C386.862 521.87 387.038 523.1 387.038 523.452H383.524C383.524 523.1 383.348 522.046 383.348 520.992V520.64ZM378.253 520.816C381.415 520.816 383.348 518.005 383.348 514.315C383.348 510.625 381.415 508.165 378.253 508.165C375.09 508.165 372.982 510.8 372.982 514.315C372.982 517.829 374.914 520.816 378.253 520.816Z" fill="#ADAAC0"/>
<path d="M408.123 518.356C407.068 521.519 404.257 523.979 400.216 523.979C395.472 523.979 391.255 520.465 391.255 514.491C391.255 508.868 395.296 505.178 399.689 505.178C405.136 505.178 408.298 508.868 408.298 514.491C408.298 515.018 408.298 515.369 408.298 515.545H394.945C394.945 518.708 397.229 520.992 400.216 520.992C403.027 520.992 404.609 519.411 405.136 517.478L408.123 518.356ZM404.609 512.733C404.609 510.273 402.851 508.165 399.689 508.165C396.702 508.165 394.945 510.449 394.769 512.733H404.609Z" fill="#ADAAC0"/>
<path d="M417.259 505.705H421.125V508.868H417.259V518.005C417.259 519.586 417.962 520.465 419.719 520.465C420.246 520.465 420.773 520.465 421.125 520.289V523.276C420.773 523.452 419.895 523.628 418.841 523.628C415.854 523.628 413.921 521.871 413.921 518.532V508.868H410.583V505.705H411.461C413.394 505.705 414.272 504.475 414.272 502.893V500.082H417.435V505.705H417.259Z" fill="#ADAAC0"/>
<path d="M430.086 513.261L434.83 512.558C435.884 512.382 436.236 511.855 436.236 511.152C436.236 509.395 435.006 507.989 432.37 507.989C429.91 507.989 428.504 509.571 428.329 511.503L424.99 510.801C425.342 507.462 428.504 505.002 432.194 505.002C437.465 505.002 439.574 507.989 439.574 511.503V520.465C439.574 522.046 439.75 522.925 439.75 523.452H436.411C436.411 522.925 436.236 522.398 436.236 520.992C435.533 522.222 433.776 523.979 430.437 523.979C426.747 523.979 424.463 521.519 424.463 518.708C424.639 515.545 426.923 513.788 430.086 513.261ZM436.236 515.896V515.018L430.789 515.896C429.383 516.072 428.153 516.951 428.153 518.532C428.153 519.938 429.207 521.168 430.964 521.168C433.951 520.992 436.236 519.762 436.236 515.896Z" fill="#ADAAC0"/>
<path d="M446.778 496.392C448.184 496.392 449.238 497.446 449.238 498.852C449.238 500.257 448.184 501.312 446.778 501.312C445.372 501.312 444.318 500.257 444.318 498.852C444.318 497.622 445.372 496.392 446.778 496.392ZM445.021 523.452V505.704H448.535V523.452H445.021Z" fill="#ADAAC0"/>
<path d="M454.333 523.452V496.743H457.847V523.452H454.333Z" fill="#ADAAC0"/>
<path d="M465.227 517.653C465.403 519.411 466.808 520.992 469.444 520.992C471.377 520.992 472.431 519.938 472.431 518.708C472.431 517.653 471.552 516.775 470.147 516.423L467.16 515.721C464.348 515.193 462.767 513.261 462.767 510.801C462.767 507.813 465.578 505.178 469.093 505.178C474.012 505.178 475.418 508.341 475.769 509.922L472.782 511.152C472.607 510.273 471.904 508.165 469.093 508.165C467.335 508.165 466.106 509.395 466.106 510.449C466.106 511.503 466.808 512.206 468.214 512.558L471.025 513.261C474.188 513.963 475.945 515.896 475.945 518.532C475.945 520.992 473.837 523.979 469.444 523.979C464.524 523.979 462.591 520.816 462.24 518.883L465.227 517.653Z" fill="#ADAAC0"/>
<path d="M477.702 528.899V526.088H481.743V497.27H477.702V494.459H484.906V528.899H477.702Z" fill="#ADAAC0"/>
<path d="M220.293 583.371V548.931H227.497V551.742H223.456V580.559H227.497V583.371H220.293Z" fill="#ADAAC0"/>
<path d="M234.877 563.339V577.923H231.363V563.339H228.024V560.176H231.363V557.189C231.363 553.323 233.998 551.039 237.161 551.039C238.391 551.039 239.094 551.215 239.27 551.39V554.553C239.094 554.553 238.567 554.378 237.688 554.378C236.458 554.378 234.877 554.905 234.877 557.365V560.176H239.094V563.339H234.877Z" fill="#ADAAC0"/>
<path d="M249.109 578.45C244.892 578.45 242.432 575.287 242.432 571.246V560H245.946V570.719C245.946 573.179 247.001 575.287 249.988 575.287C252.799 575.287 254.205 573.53 254.205 570.719V560H257.719V574.409C257.719 575.814 257.894 577.044 257.894 577.747H254.556C254.556 577.396 254.38 576.341 254.38 575.639C253.326 577.571 251.218 578.45 249.109 578.45Z" fill="#ADAAC0"/>
<path d="M267.031 577.924H263.517V560.177H266.856V562.637C268.085 560.352 270.194 559.649 272.302 559.649C276.519 559.649 278.628 562.637 278.628 566.678V577.924H275.114V567.205C275.114 564.745 274.059 562.812 270.897 562.812C268.085 562.812 266.68 564.921 266.68 567.732V577.924H267.031Z" fill="#ADAAC0"/>
<path d="M298.131 563.339V577.923H294.617V563.339H291.279V560.176H294.617V557.189C294.617 553.323 297.253 551.039 300.415 551.039C301.645 551.039 302.348 551.215 302.524 551.39V554.553C302.348 554.553 301.821 554.378 300.942 554.378C299.712 554.378 298.131 554.905 298.131 557.365V560.176H302.348V563.339H298.131Z" fill="#ADAAC0"/>
<path d="M309.903 567.732L314.647 567.029C315.702 566.854 316.053 566.326 316.053 565.624C316.053 563.866 314.823 562.461 312.188 562.461C309.728 562.461 308.322 564.042 308.146 565.975L304.808 565.272C305.159 561.934 308.322 559.474 312.012 559.474C317.283 559.474 319.391 562.461 319.391 565.975V574.937C319.391 576.518 319.567 577.396 319.567 577.924H316.229C316.229 577.396 316.053 576.869 316.053 575.464C315.35 576.694 313.593 578.451 310.255 578.451C306.565 578.451 304.281 575.991 304.281 573.179C304.456 570.017 306.741 568.259 309.903 567.732ZM316.053 570.368V569.489L310.606 570.368C309.201 570.544 307.971 571.422 307.971 573.004C307.971 574.409 309.025 575.639 310.782 575.639C313.769 575.464 316.053 574.234 316.053 570.368Z" fill="#ADAAC0"/>
<path d="M326.947 568.962C326.947 573.004 329.407 575.112 332.394 575.112C335.732 575.112 336.962 572.828 337.313 571.422L340.3 572.828C339.422 575.288 336.962 578.275 332.218 578.275C327.122 578.275 323.257 574.234 323.257 568.786C323.257 563.339 327.122 559.298 332.218 559.298C336.962 559.298 339.422 562.285 340.125 564.921L336.962 566.326C336.435 564.569 335.205 562.636 332.218 562.636C329.582 562.812 326.947 564.921 326.947 568.962Z" fill="#ADAAC0"/>
<path d="M349.086 560.177H352.951V563.339H349.086V572.477C349.086 574.058 349.788 574.937 351.545 574.937C352.073 574.937 352.6 574.937 352.951 574.761V577.748C352.6 577.924 351.721 578.099 350.667 578.099C347.68 578.099 345.747 576.342 345.747 573.004V563.339H342.409V560.177H343.287C345.22 560.177 346.099 558.947 346.099 557.365V554.554H349.261V560.177H349.086Z" fill="#ADAAC0"/>
<path d="M359.277 572.125C359.452 573.882 360.858 575.464 363.493 575.464C365.426 575.464 366.48 574.409 366.48 573.179C366.48 572.125 365.602 571.247 364.196 570.895L361.209 570.192C358.398 569.665 356.817 567.732 356.817 565.272C356.817 562.285 359.628 559.649 363.142 559.649C368.062 559.649 369.467 562.812 369.819 564.394L366.832 565.624C366.656 564.745 365.953 562.637 363.142 562.637C361.385 562.637 360.155 563.867 360.155 564.921C360.155 565.975 360.858 566.678 362.264 567.029L365.075 567.732C368.238 568.435 369.995 570.368 369.995 573.004C369.995 575.464 367.886 578.451 363.493 578.451C358.574 578.451 356.641 575.288 356.29 573.355L359.277 572.125Z" fill="#ADAAC0"/>
<path d="M371.576 583.371V580.559H375.617V551.742H371.576V548.931H378.78V583.371H371.576Z" fill="#ADAAC0"/>
<path d="M220.293 637.841V603.401H227.497V606.213H223.456V635.03H227.497V637.841H220.293Z" fill="#ADAAC0"/>
<path d="M234.877 622.203L239.621 621.5C240.675 621.324 241.027 620.797 241.027 620.094C241.027 618.337 239.797 616.932 237.161 616.932C234.701 616.932 233.296 618.513 233.12 620.446L229.782 619.743C230.133 616.404 233.296 613.944 236.985 613.944C242.257 613.944 244.365 616.932 244.365 620.446V629.407C244.365 630.989 244.541 631.867 244.541 632.394H241.202C241.202 631.867 241.027 631.34 241.027 629.934C240.324 631.164 238.567 632.922 235.228 632.922C231.539 632.922 229.254 630.462 229.254 627.65C229.43 624.487 231.714 622.73 234.877 622.203ZM241.027 624.839V623.96L235.58 624.839C234.174 625.014 232.944 625.893 232.944 627.474C232.944 628.88 233.998 630.11 235.755 630.11C238.742 629.934 241.027 628.704 241.027 624.839Z" fill="#ADAAC0"/>
<path d="M253.326 632.394H249.812V614.647H253.15V617.107C254.38 614.823 256.489 614.12 258.597 614.12C262.814 614.12 264.923 617.107 264.923 621.149V632.394H261.409V621.676C261.409 619.216 260.354 617.283 257.192 617.283C254.38 617.283 252.975 619.392 252.975 622.203V632.394H253.326Z" fill="#ADAAC0"/>
<path d="M271.248 639.775L275.641 630.462L268.085 614.647H272.127L277.574 626.947L282.845 614.647H286.535L274.938 639.775H271.248Z" fill="#ADAAC0"/>
<path d="M300.767 605.335C302.172 605.335 303.226 606.389 303.226 607.795C303.226 609.201 302.172 610.255 300.767 610.255C299.361 610.255 298.307 609.201 298.307 607.795C298.307 606.565 299.361 605.335 300.767 605.335ZM299.185 632.395V614.648H302.699V632.395H299.185Z" fill="#ADAAC0"/>
<path d="M311.836 632.394H308.322V614.647H311.66V617.107C312.89 614.823 314.999 614.12 317.107 614.12C321.324 614.12 323.433 617.107 323.433 621.149V632.394H319.919V621.676C319.919 619.216 318.864 617.283 315.702 617.283C312.89 617.283 311.485 619.392 311.485 622.203V632.394H311.836Z" fill="#ADAAC0"/>
<path d="M330.636 626.596C330.812 628.353 332.218 629.934 334.853 629.934C336.786 629.934 337.84 628.88 337.84 627.65C337.84 626.596 336.962 625.717 335.556 625.366L332.569 624.663C329.758 624.136 328.177 622.203 328.177 619.743C328.177 616.756 330.988 614.12 334.502 614.12C339.422 614.12 340.827 617.283 341.179 618.864L338.192 620.094C338.016 619.216 337.313 617.107 334.502 617.107C332.745 617.107 331.515 618.337 331.515 619.392C331.515 620.446 332.218 621.149 333.623 621.5L336.435 622.203C339.597 622.906 341.354 624.839 341.354 627.474C341.354 629.934 339.246 632.922 334.853 632.922C329.934 632.922 328.001 629.759 327.649 627.826L330.636 626.596Z" fill="#ADAAC0"/>
<path d="M350.491 614.647H354.357V617.81H350.491V626.947C350.491 628.529 351.194 629.407 352.951 629.407C353.478 629.407 354.005 629.407 354.357 629.232V632.219C354.005 632.394 353.127 632.57 352.073 632.57C349.086 632.57 347.153 630.813 347.153 627.474V617.81H343.814V614.647H344.693C346.626 614.647 347.504 613.417 347.504 611.836V609.024H350.667V614.647H350.491Z" fill="#ADAAC0"/>
<path d="M368.413 618.162C367.886 618.162 367.359 617.986 366.832 617.986C363.845 617.986 361.912 619.567 361.912 623.433V632.395H358.398V614.647H361.736V617.81C362.966 614.999 365.25 614.472 367.008 614.472C367.535 614.472 367.886 614.472 368.237 614.647V618.162H368.413Z" fill="#ADAAC0"/>
<path d="M378.78 632.922C374.563 632.922 372.103 629.759 372.103 625.717V614.472H375.617V625.19C375.617 627.65 376.671 629.759 379.658 629.759C382.47 629.759 383.875 628.002 383.875 625.19V614.472H387.389V628.88C387.389 630.286 387.565 631.516 387.565 632.219H384.227C384.227 631.867 384.051 630.813 384.051 630.11C382.997 632.043 380.888 632.922 378.78 632.922Z" fill="#ADAAC0"/>
<path d="M395.12 623.433C395.12 627.474 397.58 629.583 400.567 629.583C403.906 629.583 405.136 627.299 405.487 625.893L408.474 627.299C407.596 629.759 405.136 632.746 400.392 632.746C395.296 632.746 391.431 628.704 391.431 623.257C391.431 617.81 395.296 613.769 400.392 613.769C405.136 613.769 407.596 616.756 408.298 619.391L405.136 620.797C404.609 619.04 403.379 617.107 400.392 617.107C397.756 617.283 395.12 619.391 395.12 623.433Z" fill="#ADAAC0"/>
<path d="M417.259 614.647H421.125V617.81H417.259V626.947C417.259 628.529 417.962 629.407 419.719 629.407C420.246 629.407 420.773 629.407 421.125 629.232V632.219C420.773 632.394 419.895 632.57 418.841 632.57C415.854 632.57 413.921 630.813 413.921 627.474V617.81H410.583V614.647H411.461C413.394 614.647 414.272 613.417 414.272 611.836V609.024H417.435V614.647H417.259Z" fill="#ADAAC0"/>
<path d="M427.45 605.335C428.856 605.335 429.91 606.389 429.91 607.795C429.91 609.201 428.856 610.255 427.45 610.255C426.045 610.255 424.99 609.201 424.99 607.795C424.815 606.565 426.045 605.335 427.45 605.335ZM425.693 632.395V614.648H429.207V632.395H425.693Z" fill="#ADAAC0"/>
<path d="M451.698 623.433C451.698 628.88 448.008 632.922 442.561 632.922C437.114 632.922 433.424 628.88 433.424 623.433C433.424 617.986 437.114 613.944 442.561 613.944C448.008 613.944 451.698 618.161 451.698 623.433ZM448.183 623.433C448.183 619.391 445.548 617.107 442.737 617.107C439.925 617.107 437.29 619.391 437.29 623.433C437.29 627.65 439.925 629.759 442.737 629.759C445.548 629.759 448.183 627.65 448.183 623.433Z" fill="#ADAAC0"/>
<path d="M459.604 632.394H456.09V614.647H459.429V617.107C460.659 614.823 462.767 614.12 464.875 614.12C469.092 614.12 471.201 617.107 471.201 621.149V632.394H467.687V621.676C467.687 619.216 466.633 617.283 463.47 617.283C460.659 617.283 459.253 619.392 459.253 622.203V632.394H459.604Z" fill="#ADAAC0"/>
<path d="M478.405 626.596C478.581 628.353 479.986 629.934 482.622 629.934C484.555 629.934 485.609 628.88 485.609 627.65C485.609 626.596 484.73 625.717 483.325 625.366L480.338 624.663C477.526 624.136 475.945 622.203 475.945 619.743C475.945 616.756 478.756 614.12 482.27 614.12C487.19 614.12 488.596 617.283 488.947 618.864L485.96 620.094C485.784 619.216 485.082 617.107 482.27 617.107C480.513 617.107 479.283 618.337 479.283 619.392C479.283 620.446 479.986 621.149 481.392 621.5L484.203 622.203C487.366 622.906 489.123 624.839 489.123 627.474C489.123 629.934 487.014 632.922 482.622 632.922C477.702 632.922 475.769 629.759 475.418 627.826L478.405 626.596Z" fill="#ADAAC0"/>
<path d="M490.704 637.841V635.03H494.745V606.213H490.704V603.401H497.908V637.841H490.704Z" fill="#ADAAC0"/>
<g opacity="0.5">
<path opacity="0.5" d="M181.99 746.786C181.99 738.527 188.315 733.08 195.343 733.08C202.547 733.08 206.237 737.473 207.291 741.69L202.547 743.271C201.844 740.811 199.911 738 195.343 738C191.478 738 187.261 740.811 187.261 746.786C187.261 752.409 191.126 755.396 195.343 755.396C199.736 755.396 202.02 752.409 202.723 750.124L207.467 751.53C206.413 755.572 202.723 760.491 195.343 760.491C187.963 760.491 181.99 755.22 181.99 746.786Z" fill="#160647"/>
<path opacity="0.5" d="M214.847 759.789H209.927V733.08H214.847V743.096C216.076 741.69 218.009 741.163 219.766 741.163C224.335 741.163 226.443 744.326 226.443 748.367V759.789H221.523V749.246C221.523 747.137 220.469 745.556 218.185 745.556C216.076 745.556 214.847 747.137 214.847 749.07V759.789Z" fill="#160647"/>
<path opacity="0.5" d="M248.231 750.827C248.231 756.45 244.189 760.492 238.743 760.492C233.296 760.492 229.254 756.45 229.254 750.827C229.254 745.205 233.296 741.163 238.743 741.163C244.189 741.163 248.231 745.205 248.231 750.827ZM243.311 750.827C243.311 747.313 241.027 745.732 238.743 745.732C236.458 745.732 234.174 747.489 234.174 750.827C234.174 754.166 236.458 755.923 238.743 755.923C241.027 755.923 243.311 754.166 243.311 750.827Z" fill="#160647"/>
<path opacity="0.5" d="M268.964 750.827C268.964 756.45 264.923 760.492 259.476 760.492C254.029 760.492 249.988 756.45 249.988 750.827C249.988 745.205 254.029 741.163 259.476 741.163C264.923 741.163 268.964 745.205 268.964 750.827ZM264.044 750.827C264.044 747.313 261.76 745.732 259.476 745.732C257.191 745.732 254.907 747.489 254.907 750.827C254.907 754.166 257.191 755.923 259.476 755.923C261.76 755.923 264.044 754.166 264.044 750.827Z" fill="#160647"/>
<path opacity="0.5" d="M274.586 753.815C274.762 755.22 275.816 756.626 277.925 756.626C279.506 756.626 280.385 755.747 280.385 754.869C280.385 753.99 279.857 753.463 278.452 753.112L275.992 752.585C272.478 751.882 270.896 749.773 270.896 747.137C270.896 743.975 273.708 741.163 277.749 741.163C282.844 741.163 284.601 744.502 284.953 746.435L280.912 747.313C280.736 746.259 280.033 744.853 277.925 744.853C276.695 744.853 275.64 745.556 275.64 746.61C275.64 747.489 276.343 748.016 277.222 748.192L279.857 748.719C283.371 749.422 285.304 751.706 285.304 754.342C285.304 757.329 283.02 760.316 278.276 760.316C272.829 760.316 270.896 756.802 270.721 754.693L274.586 753.815Z" fill="#160647"/>
<path opacity="0.5" d="M304.105 754.693C303.226 757.856 300.239 760.492 295.847 760.492C290.927 760.492 286.534 756.977 286.534 750.827C286.534 745.029 290.751 741.339 295.495 741.339C301.118 741.339 304.456 744.853 304.456 750.827C304.456 751.53 304.456 752.233 304.456 752.409H291.454C291.63 754.869 293.562 756.626 296.022 756.626C298.306 756.626 299.536 755.396 300.239 753.815L304.105 754.693ZM299.536 748.719C299.536 746.962 298.306 745.205 295.495 745.205C293.035 745.205 291.63 747.137 291.454 748.719H299.536Z" fill="#160647"/>
<path opacity="0.5" d="M319.918 749.422L324.311 748.719C325.365 748.543 325.717 748.016 325.717 747.489C325.717 746.259 324.662 745.205 322.73 745.205C320.621 745.205 319.391 746.61 319.215 748.192L314.823 747.313C315.174 744.502 317.81 741.339 322.554 741.339C328.352 741.339 330.461 744.502 330.461 748.192V757.153C330.461 758.032 330.636 759.437 330.636 759.965H326.068C325.892 759.437 325.892 758.559 325.892 757.856C325.014 759.262 323.257 760.492 320.621 760.492C316.756 760.492 314.471 757.856 314.471 755.045C314.471 751.706 316.931 749.949 319.918 749.422ZM325.717 752.585V751.706L321.675 752.409C320.445 752.585 319.391 753.287 319.391 754.693C319.391 755.747 320.094 756.802 321.675 756.802C323.784 756.802 325.717 755.747 325.717 752.585Z" fill="#160647"/>
<path opacity="0.5" d="M348.734 741.69H352.424V746.083H348.734V753.639C348.734 755.22 349.437 755.747 350.842 755.747C351.37 755.747 352.072 755.747 352.424 755.572V759.613C351.897 759.789 351.018 760.14 349.613 760.14C346.098 760.14 343.814 758.032 343.814 754.517V746.083H340.476V741.69H341.354C343.287 741.69 344.166 740.46 344.166 738.879V736.243H348.558V741.69H348.734Z" fill="#160647"/>
<path opacity="0.5" d="M373.157 750.827C373.157 756.45 369.116 760.492 363.669 760.492C358.222 760.492 354.181 756.45 354.181 750.827C354.181 745.205 358.222 741.163 363.669 741.163C369.116 741.163 373.157 745.205 373.157 750.827ZM368.237 750.827C368.237 747.313 365.953 745.732 363.669 745.732C361.385 745.732 359.101 747.489 359.101 750.827C359.101 754.166 361.385 755.923 363.669 755.923C365.953 755.923 368.237 754.166 368.237 750.827Z" fill="#160647"/>
<path opacity="0.5" d="M381.064 759.789H376.144V741.69H380.888V743.975C381.942 742.042 384.226 741.163 386.159 741.163C390.728 741.163 392.66 744.326 392.66 748.367V759.789H387.741V749.246C387.741 747.137 386.686 745.556 384.402 745.556C382.294 745.556 381.064 747.137 381.064 749.246V759.789Z" fill="#160647"/>
<path opacity="0.5" d="M413.042 754.693C412.164 757.856 409.177 760.492 404.784 760.492C399.864 760.492 395.472 756.977 395.472 750.827C395.472 745.029 399.689 741.339 404.433 741.339C410.055 741.339 413.394 744.853 413.394 750.827C413.394 751.53 413.394 752.233 413.394 752.409H400.391C400.567 754.869 402.5 756.626 404.96 756.626C407.244 756.626 408.474 755.396 409.177 753.815L413.042 754.693ZM408.474 748.719C408.474 746.962 407.244 745.205 404.433 745.205C401.973 745.205 400.567 747.137 400.391 748.719H408.474Z" fill="#160647"/>
</g>
<path d="M1257.31 881.032H187.788C183.922 881.032 180.76 877.869 180.76 874.003V789.485C180.76 785.619 183.922 782.456 187.788 782.456H1257.48C1261.35 782.456 1264.51 785.619 1264.51 789.485V874.003C1264.34 877.869 1261.17 881.032 1257.31 881.032Z" fill="white"/>
<path d="M1257.31 883.667H187.788C182.517 883.667 178.124 879.275 178.124 874.003V789.485C178.124 784.213 182.517 779.82 187.788 779.82H1257.48C1262.75 779.82 1267.15 784.213 1267.15 789.485V874.003C1266.97 879.45 1262.75 883.667 1257.31 883.667ZM187.788 785.092C185.328 785.092 183.395 787.025 183.395 789.485V874.003C183.395 876.463 185.328 878.396 187.788 878.396H1257.48C1259.94 878.396 1261.88 876.463 1261.88 874.003V789.485C1261.88 787.025 1259.94 785.092 1257.48 785.092H187.788Z" fill="#E5E7EA"/>
<path d="M273.005 847.822V821.641H288.819V824.979H276.519V833.413H287.589V836.752H276.519V847.822H273.005Z" fill="#ADAAC0"/>
<path d="M300.942 833.588C300.415 833.588 299.888 833.413 299.361 833.413C296.374 833.413 294.441 834.994 294.441 838.86V847.821H290.927V830.074H294.265V833.237C295.495 830.426 297.78 829.898 299.537 829.898C300.064 829.898 300.415 829.898 300.766 830.074V833.588H300.942Z" fill="#ADAAC0"/>
<path d="M305.511 820.762C306.916 820.762 307.971 821.816 307.971 823.222C307.971 824.627 306.916 825.682 305.511 825.682C304.105 825.682 303.051 824.627 303.051 823.222C303.051 821.992 304.105 820.762 305.511 820.762ZM303.754 847.822V830.075H307.268V847.822H303.754Z" fill="#ADAAC0"/>
<path d="M327.649 842.726C326.595 845.889 323.784 848.349 319.743 848.349C314.999 848.349 310.782 844.835 310.782 838.861C310.782 833.238 314.823 829.548 319.216 829.548C324.662 829.548 327.825 833.238 327.825 838.861C327.825 839.388 327.825 839.739 327.825 839.915H314.472C314.472 843.078 316.756 845.362 319.743 845.362C322.554 845.362 324.135 843.781 324.662 841.848L327.649 842.726ZM324.135 837.104C324.135 834.644 322.378 832.535 319.216 832.535C316.229 832.535 314.472 834.819 314.296 837.104H324.135Z" fill="#ADAAC0"/>
<path d="M334.678 847.822H331.164V830.075H334.502V832.535C335.732 830.251 337.84 829.548 339.949 829.548C344.166 829.548 346.274 832.535 346.274 836.576V847.822H342.76V837.104C342.76 834.644 341.706 832.711 338.543 832.711C335.732 832.711 334.326 834.819 334.326 837.631V847.822H334.678Z" fill="#ADAAC0"/>
<path d="M363.493 845.01C362.615 846.767 360.682 848.173 358.047 848.173C352.775 848.173 349.613 843.956 349.613 838.685C349.613 833.589 352.951 829.372 358.047 829.372C361.209 829.372 362.966 830.953 363.493 832.359V820.938H367.008V844.307C367.008 846.065 367.183 847.295 367.183 847.646H363.845C363.845 847.295 363.669 846.24 363.669 845.186V845.01H363.493ZM358.398 845.186C361.561 845.186 363.493 842.375 363.493 838.685C363.493 834.995 361.561 832.535 358.398 832.535C355.235 832.535 353.127 835.17 353.127 838.685C353.127 842.199 355.06 845.186 358.398 845.186Z" fill="#ADAAC0"/>
<path d="M371.927 847.822V821.113H375.441V847.822H371.927Z" fill="#ADAAC0"/>
<path d="M380.888 855.201L385.281 845.889L377.726 830.074H381.767L387.214 842.374L392.485 830.074H396.175L384.578 855.201H380.888Z" fill="#ADAAC0"/>
<path d="M231.714 852.566C242.291 852.566 250.866 843.99 250.866 833.413C250.866 822.835 242.291 814.26 231.714 814.26C221.137 814.26 212.562 822.835 212.562 833.413C212.562 843.99 221.137 852.566 231.714 852.566Z" fill="url(#paint0_linear_35_2)" stroke="#F3A63F" stroke-miterlimit="10"/>
<path opacity="0.3" d="M220.82 837.454C223.829 837.454 226.267 835.645 226.267 833.413C226.267 831.18 223.829 829.371 220.82 829.371C217.812 829.371 215.374 831.18 215.374 833.413C215.374 835.645 217.812 837.454 220.82 837.454Z" fill="#F25638"/>
<path opacity="0.3" d="M242.959 837.454C245.968 837.454 248.406 835.645 248.406 833.413C248.406 831.18 245.968 829.371 242.959 829.371C239.951 829.371 237.512 831.18 237.512 833.413C237.512 835.645 239.951 837.454 242.959 837.454Z" fill="#F25638"/>
<g opacity="0.5">
<g opacity="0.5">
<path opacity="0.5" d="M229.079 829.019C228.376 827.262 226.619 826.032 224.686 826.032C222.753 826.032 220.996 827.262 220.293 829.019" stroke="#160647" stroke-miterlimit="10" stroke-linecap="round"/>
<path opacity="0.5" d="M243.135 829.019C242.432 827.262 240.675 826.032 238.742 826.032C236.809 826.032 235.052 827.262 234.35 829.019" stroke="#160647" stroke-miterlimit="10" stroke-linecap="round"/>
</g>
<path opacity="0.5" d="M220.82 837.278C223.104 841.144 227.146 843.78 232.065 843.78C236.81 843.78 241.026 841.144 243.311 837.278" stroke="#160647" stroke-miterlimit="10" stroke-linecap="round"/>
</g>
<path d="M1250.28 1074.49H194.816C187.085 1074.49 180.76 1068.17 180.76 1060.44V989.975C180.76 982.244 187.085 975.918 194.816 975.918H1250.45C1258.19 975.918 1264.51 982.244 1264.51 989.975V1060.44C1264.34 1068.17 1258.19 1074.49 1250.28 1074.49Z" fill="#47BEB9"/>
<path d="M614.225 1028.11C614.225 1018.62 621.429 1012.47 629.511 1012.47C637.77 1012.47 641.986 1017.56 643.216 1022.31L637.77 1024.06C637.067 1021.25 634.783 1018.09 629.511 1018.09C625.119 1018.09 620.375 1021.25 620.375 1028.11C620.375 1034.43 624.767 1037.95 629.687 1037.95C634.783 1037.95 637.242 1034.61 638.121 1031.8L643.568 1033.38C642.514 1037.95 638.121 1043.57 629.687 1043.57C621.078 1043.74 614.225 1037.59 614.225 1028.11Z" fill="white"/>
<path d="M659.03 1027.93C658.327 1027.75 657.8 1027.75 657.273 1027.75C654.462 1027.75 652.002 1029.16 652.002 1033.55V1043.04H646.379V1022.31H651.826V1025.47C653.056 1022.66 656.043 1022.31 657.8 1022.31C658.327 1022.31 658.679 1022.31 659.03 1022.31V1027.93Z" fill="white"/>
<path d="M680.29 1037.07C679.236 1040.58 675.898 1043.57 670.802 1043.57C665.18 1043.57 660.084 1039.53 660.084 1032.5C660.084 1025.82 665.004 1021.6 670.275 1021.6C676.6 1021.6 680.466 1025.64 680.466 1032.32C680.466 1033.2 680.466 1033.9 680.466 1034.08H665.707C665.882 1036.89 668.167 1038.82 670.978 1038.82C673.613 1038.82 675.019 1037.59 675.722 1035.66L680.29 1037.07ZM675.019 1030.39C675.019 1028.28 673.613 1026.35 670.451 1026.35C667.464 1026.35 665.882 1028.46 665.882 1030.39H675.019Z" fill="white"/>
<path d="M688.9 1031.09L693.995 1030.39C695.225 1030.21 695.577 1029.69 695.577 1028.98C695.577 1027.58 694.522 1026.35 692.063 1026.35C689.603 1026.35 688.197 1027.93 688.021 1029.69L683.102 1028.63C683.453 1025.47 686.44 1021.78 692.063 1021.78C698.564 1021.78 701.024 1025.47 701.024 1029.69V1039.88C701.024 1040.93 701.199 1042.51 701.199 1043.22H696.104C695.928 1042.69 695.928 1041.46 695.928 1040.76C694.874 1042.34 692.941 1043.92 689.778 1043.92C685.386 1043.92 682.574 1040.93 682.574 1037.59C682.75 1033.73 685.386 1031.62 688.9 1031.09ZM695.577 1034.61V1033.73L690.833 1034.43C689.427 1034.61 688.197 1035.49 688.197 1037.07C688.197 1038.3 689.076 1039.53 690.833 1039.53C693.292 1039.53 695.577 1038.3 695.577 1034.61Z" fill="white"/>
<path d="M712.444 1022.31H716.661V1027.23H712.444V1035.84C712.444 1037.59 713.323 1038.3 714.904 1038.3C715.607 1038.3 716.31 1038.3 716.661 1038.12V1042.69C716.134 1042.87 715.08 1043.22 713.499 1043.22C709.457 1043.22 706.998 1040.76 706.998 1036.89V1027.23H703.308V1022.31H704.362C706.47 1022.31 707.525 1020.9 707.525 1018.97V1015.98H712.62V1022.31H712.444Z" fill="white"/>
<path d="M738.624 1037.07C737.57 1040.58 734.232 1043.57 729.136 1043.57C723.514 1043.57 718.418 1039.53 718.418 1032.5C718.418 1025.82 723.338 1021.6 728.609 1021.6C734.935 1021.6 738.8 1025.64 738.8 1032.32C738.8 1033.2 738.8 1033.9 738.8 1034.08H724.041C724.217 1036.89 726.501 1038.82 729.312 1038.82C731.948 1038.82 733.353 1037.59 734.056 1035.66L738.624 1037.07ZM733.529 1030.39C733.529 1028.28 732.123 1026.35 728.961 1026.35C725.974 1026.35 724.392 1028.46 724.392 1030.39H733.529Z" fill="white"/>
<path d="M750.397 1028.11C750.397 1018.62 757.601 1012.47 765.683 1012.47C773.941 1012.47 778.158 1017.56 779.388 1022.31L773.941 1024.06C773.238 1021.25 770.954 1018.09 765.683 1018.09C761.29 1018.09 756.546 1021.25 756.546 1028.11C756.546 1034.43 760.939 1037.95 765.859 1037.95C770.954 1037.95 773.414 1034.61 774.293 1031.8L779.74 1033.38C778.685 1037.95 774.293 1043.57 765.859 1043.57C757.249 1043.74 750.397 1037.59 750.397 1028.11Z" fill="white"/>
<path d="M802.406 1032.67C802.406 1039 797.662 1043.74 791.512 1043.74C785.362 1043.74 780.618 1039.17 780.618 1032.67C780.618 1026.35 785.362 1021.6 791.512 1021.6C797.662 1021.6 802.406 1026.17 802.406 1032.67ZM796.783 1032.67C796.783 1028.81 794.323 1026.7 791.512 1026.7C788.701 1026.7 786.241 1028.63 786.241 1032.67C786.241 1036.54 788.701 1038.65 791.512 1038.65C794.148 1038.65 796.783 1036.54 796.783 1032.67Z" fill="white"/>
<path d="M805.744 1051.12V1022.31H811.191V1024.77C812.069 1023.19 814.354 1021.78 817.516 1021.78C823.666 1021.78 827.004 1026.35 827.004 1032.5C827.004 1038.82 823.139 1043.39 817.165 1043.39C814.354 1043.39 812.245 1042.34 811.191 1040.93V1050.95H805.744V1051.12ZM816.462 1026.88C813.651 1026.88 811.191 1028.98 811.191 1032.67C811.191 1036.36 813.475 1038.47 816.462 1038.47C819.273 1038.47 821.558 1036.36 821.558 1032.67C821.558 1028.98 819.273 1026.88 816.462 1026.88Z" fill="white"/>
<path d="M830.694 1051.3L835.614 1040.58L826.829 1022.48H833.154L838.601 1034.61L843.696 1022.48H849.67L836.668 1051.48H830.694V1051.3Z" fill="white"/>
<path d="M1214.61 826.561H1184.74L1199.68 845.889L1214.61 826.561Z" fill="#ADAAC0"/>
<g opacity="0.5">
<g opacity="0.5">
<path opacity="0.5" d="M699.97 366.013C736.651 366.013 766.386 336.276 766.386 299.593C766.386 262.91 736.651 233.173 699.97 233.173C663.289 233.173 633.553 262.91 633.553 299.593C633.553 336.276 663.289 366.013 699.97 366.013Z" fill="#F7D04F"/>
</g>
</g>
<path d="M735.638 387.801C733.178 387.801 731.069 386.395 730.015 384.111L719.473 360.565L712.093 367.242C711.39 367.945 710.512 368.296 709.633 368.296C707.525 368.296 705.768 366.539 705.768 364.431V320.678C705.768 318.042 707.876 315.934 710.688 315.934C712.093 315.934 713.323 316.461 714.202 317.515L745.477 350.549C746.532 351.604 746.883 353.185 746.18 354.591C745.477 355.996 744.247 356.875 742.666 356.875H731.245L741.26 379.191C741.963 380.772 741.963 382.354 741.436 383.935C740.909 385.516 739.679 386.746 738.273 387.274C737.395 387.625 736.516 387.801 735.638 387.801Z" fill="#160647"/>
<path d="M710.688 317.515C711.39 317.515 712.269 317.867 712.972 318.394L744.247 351.428C745.477 352.658 744.599 354.942 742.842 354.942H728.785L739.855 379.718C740.909 382.002 739.855 384.462 737.571 385.517C737.043 385.692 736.341 385.868 735.813 385.868C734.056 385.868 732.475 384.814 731.772 383.232L720.176 357.402L711.039 365.661C710.688 366.012 710.16 366.188 709.633 366.188C708.579 366.188 707.525 365.31 707.525 364.08V320.327C707.701 318.745 709.106 317.515 710.688 317.515ZM710.688 314.001C706.998 314.001 704.011 316.988 704.011 320.502V364.255C704.011 367.242 706.471 369.878 709.633 369.878C711.039 369.878 712.269 369.351 713.323 368.472L718.77 363.552L728.258 384.99C729.488 387.801 732.299 389.734 735.462 389.734C736.516 389.734 737.746 389.558 738.625 389.031C740.558 388.152 741.963 386.571 742.842 384.638C743.544 382.705 743.544 380.597 742.666 378.664L733.705 358.808H742.315C744.599 358.808 746.532 357.578 747.41 355.47C748.289 353.361 747.937 351.077 746.356 349.495L715.08 316.461C714.202 314.704 712.62 314.001 710.688 314.001Z" fill="white"/>
<defs>
<filter id="filter0_dd_35_2" x="0.340576" y="18.4502" width="1439.32" height="1233.1" filterUnits="userSpaceOnUse" color-interpolation-filters="sRGB">
<feFlood flood-opacity="0" result="BackgroundImageFix"/>
<feColorMatrix in="SourceAlpha" type="matrix" values="0 0 0 0 0 0 0 0 0 0 0 0 0 0 0 0 0 0 127 0" result="hardAlpha"/>
<feMorphology radius="5" operator="erode" in="SourceAlpha" result="effect1_dropShadow_35_2"/>
<feOffset dy="20"/>
<feGaussianBlur stdDeviation="12.5"/>
<feColorMatrix type="matrix" values="0 0 0 0 0 0 0 0 0 0 0 0 0 0 0 0 0 0 0.1 0"/>
<feBlend mode="normal" in2="BackgroundImageFix" result="effect1_dropShadow_35_2"/>
<feColorMatrix in="SourceAlpha" type="matrix" values="0 0 0 0 0 0 0 0 0 0 0 0 0 0 0 0 0 0 127 0" result="hardAlpha"/>
<feMorphology radius="5" operator="erode" in="SourceAlpha" result="effect2_dropShadow_35_2"/>
<feOffset dy="10"/>
<feGaussianBlur stdDeviation="5"/>
<feColorMatrix type="matrix" values="0 0 0 0 0 0 0 0 0 0 0 0 0 0 0 0 0 0 0.06 0"/>
<feBlend mode="normal" in2="effect1_dropShadow_35_2" result="effect2_dropShadow_35_2"/>
<feBlend mode="normal" in="SourceGraphic" in2="effect2_dropShadow_35_2" result="shape"/>
</filter>
<linearGradient id="paint0_linear_35_2" x1="231.774" y1="802.155" x2="231.774" y2="861.917" gradientUnits="userSpaceOnUse">
<stop offset="0.2064" stop-color="#F7D04F"/>
<stop offset="0.8584" stop-color="#F3A63F"/>
</linearGradient>
</defs>
</svg>
